<svg id="app_store_logo" xmlns="http://www.w3.org/2000/svg" width="182.25" height="54" viewBox="0 0 182.25 54">
  <path id="Path_212469" data-name="Path 212469" d="M446.5,564H277.75a6.751,6.751,0,0,0-6.75,6.75v40.5a6.751,6.751,0,0,0,6.75,6.75H446.5a6.751,6.751,0,0,0,6.75-6.75v-40.5A6.751,6.751,0,0,0,446.5,564Z" transform="translate(-271 -564)" fill="#191919"/>
  <path id="Path_212470" data-name="Path 212470" d="M156.2,588.532a7.825,7.825,0,0,1,3.727-6.566,8.015,8.015,0,0,0-6.313-3.413c-2.655-.28-5.231,1.589-6.584,1.589-1.38,0-3.463-1.562-5.708-1.516a8.4,8.4,0,0,0-7.074,4.315c-3.059,5.3-.778,13.079,2.153,17.36,1.466,2.1,3.179,4.438,5.422,4.355,2.194-.091,3.013-1.4,5.661-1.4,2.623,0,3.393,1.4,5.679,1.346,2.354-.038,3.837-2.106,5.252-4.221a17.322,17.322,0,0,0,2.4-4.891A7.565,7.565,0,0,1,156.2,588.532Zm-4.32-12.8a7.7,7.7,0,0,0,1.763-5.52,7.846,7.846,0,0,0-5.073,2.625,7.33,7.33,0,0,0-1.809,5.316A6.481,6.481,0,0,0,151.876,575.737Zm36.068,28.617h-3.066l-1.679-5.277h-5.837l-1.6,5.277h-2.985l5.783-17.966h3.572Zm-5.251-7.491-1.519-4.691q-.241-.719-.906-3.384h-.054q-.4,1.7-.853,3.384l-1.492,4.691Zm20.124.855a7.362,7.362,0,0,1-1.786,5.223,5.222,5.222,0,0,1-3.972,1.706,3.971,3.971,0,0,1-3.679-1.839h-.054v6.824h-2.878V595.665q0-2.078-.107-4.265h2.531l.161,2.053h.054a5.121,5.121,0,0,1,8.2-.508A7.138,7.138,0,0,1,202.817,597.718Zm-2.932.105a5.334,5.334,0,0,0-.853-3.119,2.947,2.947,0,0,0-2.506-1.28,2.993,2.993,0,0,0-1.932.706,3.274,3.274,0,0,0-1.133,1.854,3.768,3.768,0,0,0-.134.877v2.16a3.461,3.461,0,0,0,.867,2.387,2.873,2.873,0,0,0,2.252.973,2.946,2.946,0,0,0,2.531-1.253A5.514,5.514,0,0,0,199.884,597.823Zm17.832-.105a7.356,7.356,0,0,1-1.787,5.223,5.217,5.217,0,0,1-3.97,1.706,3.968,3.968,0,0,1-3.677-1.839h-.054v6.824h-2.878V595.665q0-2.078-.107-4.265h2.531l.161,2.053h.054a5.123,5.123,0,0,1,8.2-.508A7.158,7.158,0,0,1,217.717,597.718Zm-2.932.105a5.334,5.334,0,0,0-.855-3.119,2.943,2.943,0,0,0-2.5-1.28,3,3,0,0,0-1.933.706,3.272,3.272,0,0,0-1.131,1.854,3.842,3.842,0,0,0-.134.877v2.16a3.471,3.471,0,0,0,.864,2.387,2.879,2.879,0,0,0,2.255.973,2.947,2.947,0,0,0,2.531-1.253A5.514,5.514,0,0,0,214.784,597.823Zm19.591,1.493a4.789,4.789,0,0,1-1.6,3.731,7.073,7.073,0,0,1-4.894,1.573,8.566,8.566,0,0,1-4.656-1.119l.667-2.4a7.889,7.889,0,0,0,4.161,1.148,3.933,3.933,0,0,0,2.534-.735,2.4,2.4,0,0,0,.9-1.963,2.5,2.5,0,0,0-.747-1.841,6.937,6.937,0,0,0-2.479-1.389q-4.718-1.76-4.717-5.152a4.558,4.558,0,0,1,1.654-3.63,6.519,6.519,0,0,1,4.4-1.415,8.718,8.718,0,0,1,4.077.853l-.719,2.346a7.074,7.074,0,0,0-3.438-.826,3.481,3.481,0,0,0-2.371.747,2.133,2.133,0,0,0-.72,1.627,2.2,2.2,0,0,0,.825,1.759,9.319,9.319,0,0,0,2.614,1.386,8.867,8.867,0,0,1,3.411,2.184A4.563,4.563,0,0,1,234.376,599.316Zm9.516-5.756h-3.173v6.29q0,2.4,1.679,2.4a5.106,5.106,0,0,0,1.278-.134l.08,2.186a6.525,6.525,0,0,1-2.238.319,3.454,3.454,0,0,1-2.666-1.039,5.106,5.106,0,0,1-.96-3.492v-6.53H236V591.4h1.89v-2.372l2.827-.853V591.4h3.173Zm14.314,4.211a7.107,7.107,0,0,1-1.706,4.9,6.092,6.092,0,0,1-4.747,1.972,5.793,5.793,0,0,1-4.543-1.891,6.889,6.889,0,0,1-1.693-4.771,7.037,7.037,0,0,1,1.745-4.93,6.041,6.041,0,0,1,4.7-1.92,5.916,5.916,0,0,1,4.585,1.893A6.81,6.81,0,0,1,258.206,597.771Zm-2.986.093a5.827,5.827,0,0,0-.772-3.074,2.843,2.843,0,0,0-2.584-1.55,2.886,2.886,0,0,0-2.639,1.55,5.939,5.939,0,0,0-.772,3.128,5.819,5.819,0,0,0,.772,3.073,2.942,2.942,0,0,0,5.2-.027A5.848,5.848,0,0,0,255.22,597.864Zm12.342-3.932a4.991,4.991,0,0,0-.907-.08A2.72,2.72,0,0,0,264.308,595a4.313,4.313,0,0,0-.72,2.558v6.8h-2.877l.027-8.875q0-2.24-.108-4.078h2.507l.105,2.479h.08a4.431,4.431,0,0,1,1.439-2.052,3.48,3.48,0,0,1,2.08-.694,4.623,4.623,0,0,1,.72.052Zm12.872,3.333a6.823,6.823,0,0,1-.105,1.305h-8.635a3.759,3.759,0,0,0,1.253,2.934,4.277,4.277,0,0,0,2.824.906,9.55,9.55,0,0,0,3.494-.613l.451,2a10.8,10.8,0,0,1-4.343.8,6.291,6.291,0,0,1-4.733-1.773,6.547,6.547,0,0,1-1.719-4.758,7.422,7.422,0,0,1,1.6-4.878,5.516,5.516,0,0,1,4.529-2.078,4.828,4.828,0,0,1,4.24,2.078A7.006,7.006,0,0,1,280.434,597.264Zm-2.745-.747a3.911,3.911,0,0,0-.559-2.213,2.514,2.514,0,0,0-2.294-1.2,2.731,2.731,0,0,0-2.291,1.173,4.3,4.3,0,0,0-.852,2.238h6ZM181.74,575.336a4.432,4.432,0,0,1-1.428,3.588,5.681,5.681,0,0,1-3.757,1.113,17.406,17.406,0,0,1-2.07-.105V571.25a15.284,15.284,0,0,1,2.437-.184,5.252,5.252,0,0,1,3.5,1.008A4.075,4.075,0,0,1,181.74,575.336Zm-1.492.039a2.876,2.876,0,0,0-3.209-3.2,5.99,5.99,0,0,0-1.139.092v6.6a7.483,7.483,0,0,0,.956.039,3.346,3.346,0,0,0,2.507-.9A3.616,3.616,0,0,0,180.249,575.375Zm9.4,1.349a3.491,3.491,0,0,1-.838,2.41,2.992,2.992,0,0,1-2.331.969,2.844,2.844,0,0,1-2.233-.93,3.387,3.387,0,0,1-.83-2.344,3.457,3.457,0,0,1,.857-2.422,2.973,2.973,0,0,1,2.311-.942,2.911,2.911,0,0,1,2.253.929A3.36,3.36,0,0,1,189.65,576.724Zm-1.467.046a2.878,2.878,0,0,0-.379-1.51,1.4,1.4,0,0,0-1.269-.761,1.419,1.419,0,0,0-1.3.761,2.916,2.916,0,0,0-.379,1.536,2.878,2.878,0,0,0,.379,1.511,1.428,1.428,0,0,0,1.284.761,1.412,1.412,0,0,0,1.269-.775A2.859,2.859,0,0,0,188.183,576.77Zm12.073-3.175-1.991,6.364h-1.3l-.825-2.763a20.7,20.7,0,0,1-.512-2.056h-.026a14.957,14.957,0,0,1-.512,2.056l-.876,2.763h-1.311l-1.872-6.364h1.454l.72,3.025q.261,1.073.432,2.043h.026q.158-.8.525-2.029l.9-3.038h1.153l.865,2.973q.314,1.087.51,2.1h.039a20.02,20.02,0,0,1,.432-2.1l.772-2.973h1.389Zm7.335,6.364h-1.415v-3.645q0-1.685-1.283-1.685a1.291,1.291,0,0,0-.564.113,1.277,1.277,0,0,0-.458.35,1.645,1.645,0,0,0-.393,1.091v3.775h-1.415v-4.544q0-.838-.051-1.821h1.243l.066.995h.039a2.044,2.044,0,0,1,.733-.768,2.39,2.39,0,0,1,1.282-.358,2.032,2.032,0,0,1,1.481.576,2.8,2.8,0,0,1,.733,2.109Zm3.9,0h-1.413v-9.284h1.413Zm8.33-3.235a3.491,3.491,0,0,1-.838,2.41,2.994,2.994,0,0,1-2.332.969,2.84,2.84,0,0,1-2.233-.93,3.387,3.387,0,0,1-.83-2.344,3.457,3.457,0,0,1,.857-2.422,2.972,2.972,0,0,1,2.31-.942,2.913,2.913,0,0,1,2.254.929A3.36,3.36,0,0,1,219.821,576.724Zm-1.469.046a2.878,2.878,0,0,0-.379-1.51,1.4,1.4,0,0,0-1.268-.761,1.416,1.416,0,0,0-1.3.761,2.916,2.916,0,0,0-.379,1.536,2.878,2.878,0,0,0,.379,1.511,1.428,1.428,0,0,0,1.284.761,1.41,1.41,0,0,0,1.268-.775A2.847,2.847,0,0,0,218.352,576.77Zm8.316,3.189H225.4l-.105-.733h-.039a2.179,2.179,0,0,1-1.859.878,1.919,1.919,0,0,1-1.453-.576,1.812,1.812,0,0,1-.5-1.3,1.977,1.977,0,0,1,.976-1.781,5.066,5.066,0,0,1,2.745-.6v-.119q0-1.257-1.322-1.257a2.96,2.96,0,0,0-1.659.471l-.288-.929a4.079,4.079,0,0,1,2.183-.55q2.495,0,2.5,2.633v2.344A9.94,9.94,0,0,0,226.668,579.959Zm-1.469-2.187v-.982q-2.341-.04-2.341,1.282a.958.958,0,0,0,.271.747.986.986,0,0,0,.691.248,1.428,1.428,0,0,0,.865-.294,1.2,1.2,0,0,0,.513-1Zm9.508,2.187h-1.256l-.066-1.022h-.039A2.115,2.115,0,0,1,231.3,580.1a2.4,2.4,0,0,1-1.912-.9,3.518,3.518,0,0,1-.759-2.344,3.689,3.689,0,0,1,.825-2.5,2.536,2.536,0,0,1,1.964-.891,1.907,1.907,0,0,1,1.793.864h.027v-3.653h1.416v7.569Q234.658,579.174,234.708,579.959Zm-1.466-2.684v-1.061a1.606,1.606,0,0,0-.551-1.3,1.392,1.392,0,0,0-.946-.347,1.451,1.451,0,0,0-1.245.629,2.7,2.7,0,0,0-.454,1.61,2.513,2.513,0,0,0,.435,1.532,1.456,1.456,0,0,0,1.237.628,1.363,1.363,0,0,0,1.118-.524A1.744,1.744,0,0,0,233.242,577.275Zm13.566-.551a3.49,3.49,0,0,1-.838,2.41,2.99,2.99,0,0,1-2.331.969,2.848,2.848,0,0,1-2.233-.93,3.387,3.387,0,0,1-.83-2.344,3.457,3.457,0,0,1,.857-2.422,2.974,2.974,0,0,1,2.313-.942,2.908,2.908,0,0,1,2.252.929A3.36,3.36,0,0,1,246.808,576.724Zm-1.466.046a2.877,2.877,0,0,0-.379-1.51,1.4,1.4,0,0,0-1.27-.761,1.422,1.422,0,0,0-1.3.761,2.917,2.917,0,0,0-.379,1.536,2.878,2.878,0,0,0,.379,1.511,1.428,1.428,0,0,0,1.284.761,1.414,1.414,0,0,0,1.27-.775A2.872,2.872,0,0,0,245.342,576.77Zm9.073,3.189H253v-3.645q0-1.685-1.284-1.685a1.272,1.272,0,0,0-1.021.463,1.636,1.636,0,0,0-.393,1.091v3.775h-1.416v-4.544q0-.838-.05-1.821h1.242l.066.995h.039a2.063,2.063,0,0,1,.733-.768,2.4,2.4,0,0,1,1.284-.358,2.03,2.03,0,0,1,1.48.576,2.8,2.8,0,0,1,.733,2.109Zm9.522-5.3h-1.558v3.091c0,.786.277,1.179.825,1.179a2.492,2.492,0,0,0,.63-.066l.036,1.073a3.176,3.176,0,0,1-1.1.158,1.691,1.691,0,0,1-1.308-.51,2.5,2.5,0,0,1-.473-1.716v-3.209h-.93v-1.06h.93v-1.166l1.387-.419v1.584h1.558v1.061Zm7.49,5.3H270.01v-3.618q0-1.711-1.281-1.712a1.351,1.351,0,0,0-1.35.992,1.8,1.8,0,0,0-.066.509v3.827H265.9v-9.283h1.413v3.835h.027a2.139,2.139,0,0,1,1.912-1.046,1.971,1.971,0,0,1,1.455.576,2.9,2.9,0,0,1,.72,2.134Zm7.726-3.483a3.422,3.422,0,0,1-.053.641h-4.243a1.856,1.856,0,0,0,.614,1.44,2.108,2.108,0,0,0,1.389.445,4.688,4.688,0,0,0,1.716-.3l.221.983a5.327,5.327,0,0,1-2.136.393,3.084,3.084,0,0,1-2.323-.871,3.208,3.208,0,0,1-.844-2.337,3.642,3.642,0,0,1,.786-2.4,2.706,2.706,0,0,1,2.225-1.021,2.367,2.367,0,0,1,2.08,1.021A3.4,3.4,0,0,1,279.152,576.476Zm-1.35-.366a1.9,1.9,0,0,0-.274-1.087,1.236,1.236,0,0,0-1.126-.59,1.344,1.344,0,0,0-1.126.576,2.135,2.135,0,0,0-.42,1.1Z" transform="translate(-115.488 -561.824)" fill="#fff"/>
</svg>
