<svg xmlns="http://www.w3.org/2000/svg" xmlns:xlink="http://www.w3.org/1999/xlink" width="100%" height="100%" viewBox="0 0 550 410">
    <defs>
        <clipPath id="clip-path">
            <rect id="NoPath" width="550" height="410" rx="20" transform="translate(107 1900)" fill="#212b3c" style="mix-blend-mode: luminosity;isolation: isolate"/>
        </clipPath>
        <radialGradient id="radial-gradient" cx="0.5" cy="0.5" r="0.559" gradientTransform="matrix(0.695, -0.719, 0.705, 0.682, -0.2, 0.518)" gradientUnits="objectBoundingBox">
            <stop offset="0" stop-color="#84caff"/>
            <stop offset="1" stop-color="#212b3c"/>
        </radialGradient>
    </defs>
    <g id="oto_map" transform="translate(-107 -1900)" clip-path="url(#clip-path)">
        <path id="Path_192773" data-name="Path 192773" d="M611.02-5017.756l.009-.413c.028-1.2.051-2.426.08-3.645l.01-.014c.845-39.907,2.659-89.057,6.573-124.56.828-7.436,1.747-14.313,2.771-20.346a135.425,135.425,0,0,1,3.547-16c.014,0,.026,0,.039-.142h.026s.012,0,.012-.14h.027s.014,0,.014-.14h.039s0-.141.013-.141h.027s.012,0,.012-.14h.041c0-.142.012-.142.012-.142h.026l.014-.138c13.386-41.4,16.71-184.942,16.657-186.206-.367-9.121-.971-52.241-1.785-61.083h13.134c.922,10.223,1.539,54.444,1.854,64.667,8.249.911,16.388,1.811,24.052,2.5l-1.662-64.666h3.026l1.68,65.019q-.6-.071-1.195-.132l1.222.14c22.285,2.263,40.3,3.814,46.135,3.814h2.5c-.12.878-.224,1.68-.313,2.4.094-.705.2-1.49.325-2.347a188.278,188.278,0,0,1,5.277-24.379c1.084-3.729,2.247-41.24,3.519-44.5h13.91c-2.112,4.716-3.788,43.626-5.113,48.122a172.454,172.454,0,0,0-5.549,27.971,6.4,6.4,0,0,1-.271,1.426l-.007.023c4.164,4.65,9.474,11.557,16.755,22.154,3.751,5.362,7.811,11.559,12.288,18.472.764,1.261,1.6,2.522,2.441,3.784-.832-1.292-1.657-2.559-2.444-3.815l30.89-21.875-33.69-96.281h6.315l31.948,93.047,1.089,2,1.3.914-1.275-.914-1.081-2,24.276-17.178h0l8.121-5.748-11.746-18.88q-.218-1.589-.431-3.178.211,1.589.428,3.175l-10.721-51.214H824.7q.134,1.149.272,2.3-.137-1.154-.271-2.309h7.278l8.33,48.048,10.192,15.723,3.042,4.888,42.658,65.416c-1.65,5.99-3.175,11.984-4.59,18.029l-50.052-77.3-10.095,7.141-21.321,15.1,50.333,34.073c.382,2.616.763,5.268,1.143,7.884l-56.444-38.456-.745-.523.727.527L773.75-5305.7l.019.028c7.29,11.441,15.517,24.79,24.577,39.923,4.269,7.15,8.539,14.419,12.7,21.449q.484.832.965,1.633l-.958-1.635,62.817-68.32c.351,2.723.695,5.46,1.019,8.183l-60.8,65.3c4.887,8.329,28.305,49.183,31.95,55.616,0,.078,0,.155,0,.232l50.778-75.911c.726,5.628,1.436,11.286,2.1,16.912l-49.786,74.42v8.594c-.676,4.452-1.326,8.167-1.326,8.167l-.322,1.437L820.63-5029.909l-1.25,5.6-1.25,5.6H805.009l23.641-105.707.007-.028-19.294-6.1.948-4.816a1.736,1.736,0,0,0-.1-.985l19.751,6.247-.6,2.691.645-2.729,7.707-34.44c.038.04-.371-1.581-.9-3.69l-.382-.651.158-.236c-.157-.625-.321-1.275-.483-1.925-.461-1.845-.914-3.687-1.2-4.938-4.234-7.485-10.8-19.083-18.646-32.772-.766-1.354-1.578-2.708-2.406-4.1.823,1.409,1.624,2.79,2.4,4.171l-19.69-2.432-7.838,34.392-.293-.495a1.419,1.419,0,0,0-.2-.31,1.49,1.49,0,0,1,.185.29l.291.555,21.441,40.241c.012.038.037.079.049.118l-2.182-.675,2.186.691a1.673,1.673,0,0,1,.1.982l-.948,4.816-2.872-.912v0l-27.424-8.67-3.723-1.173,3.705,1.2-8.7,95.351-3.568,2.928-1.028-.087,1.018.111-.242.205.246-.2h0l3.581-2.958-.4,4.314-1.025.849,1.031-.827-2,21.672h-5.392l1.613-17.514,2.546.293.1-.75-.1.726-2.55-.283-63.255-6.965-3.147-.348,3.157.36-2.484,24.489H693.05l2.54-25.089-70.619-7.775c-.237,7.559-.437,15.01-.606,22.23v.42c0,.142-.012.142-.012.142v.282c-.014.56-.028,1.122-.041,1.681l-.016-.023q-.1,4.622-.19,9.1ZM766.1-5039.044a1.842,1.842,0,0,0,.229.2,1.448,1.448,0,0,1-.213-.2l-.092-.115Zm-.336-.7a1.738,1.738,0,0,1,.387-1.515A1.7,1.7,0,0,0,765.768-5039.74Zm1.639-1.3.089-.66h0Zm-71.222-8.517,5.305.588,63.2,6.956,9.127-99.541-62.2-7.088.3-2.928H711.9l-.3,2.96-10.1,99.643-5.328-.6,10.1-99.642.083-.832-.087.813-74.13-8.4c-3.638,25.686-5.751,63.8-6.979,100.249Zm82.334-96.8,27.448,8.682-19.791-37.214-.387-.713a1.552,1.552,0,0,1-.095-.217,1.739,1.739,0,0,0,.1.251l.367.692-60.861-3.656-.008.018h-.005l-11.5,24.311,61.952,7.072c.045,0,.09,0,.135.007a1.138,1.138,0,0,1,.152.014l.042.007,1.052.12a2.467,2.467,0,0,1,1.379.621Zm-3.917,4.832a2.553,2.553,0,0,1-.632-.339A2.049,2.049,0,0,0,774.6-5141.527Zm-1.549-1.565a2.955,2.955,0,0,1-.119-1.682A2.923,2.923,0,0,0,773.052-5143.092Zm-.04-1.977c-.031.1-.058.2-.079.293q.032-.146.079-.292a3.17,3.17,0,0,1,.133-.352A3.038,3.038,0,0,0,773.013-5145.069Zm3.373-1.959c-.04-.013-.08-.024-.121-.034Zm-63.877-4.425.9-1.95-.916,1.944Zm-4.374-3.337-.424.878.01,0,.432-.9,12.194-25.8,1.814,1.618a1.352,1.352,0,0,0,.666.318,1.373,1.373,0,0,1-.662-.328l-1.812-1.6,1.422-3,.471.416-.474-.42,17.293-36.551L694.082-5279.8l-1.066-1.406.912-.8-.918.8,1.067,1.412-17.925,5.279h0l-3.126,47.8-.258-.227.251.225,48.751,43.091-1.428,3.012-47.581-42.051,0,0-4.146,63.355h0v.006Zm-39.548-4.113a1.732,1.732,0,0,1-.472,1.081,1.742,1.742,0,0,0,.492-1.067v-.316Zm-2.964-.749,4.336-66.326a1.678,1.678,0,0,0,.394,1.165l.052.042-.062-.062a1.61,1.61,0,0,1-.367-1.138v-.049a1.286,1.286,0,0,1,.024-.243,1.754,1.754,0,0,0-.033.217l3.113-47.551,1.294-.392-1.294.381.141-2.128a1.661,1.661,0,0,1,1.252-1.53,1.663,1.663,0,0,0-1.256,1.535l-.16,2.129-23.655,6.974c-2.68,33.961-6.734,68.337-12.753,86.984-.014,0-.014,0-.027.14h-.039v.139h-.039l-.015.141H636.5a124.273,124.273,0,0,0-3.489,15.854Zm120.321-18.486,7.62-33.354.587.067-.585-.071.006-.029-49.787-5.993.872-1.872-.017-.008-.876,1.857-16.985,35.873-1.777-.1,1.781.106-.609,1.286.614-1.272Zm7.985-34.955.49-2.152-.014-.015Zm3.613-2.366-.407,1.788.422-1.785a1.736,1.736,0,0,0-.135-1.1A1.637,1.637,0,0,1,797.542-5215.459Zm15.067.47c-7.079-12.153-14.891-25.738-23.012-39.321-10.4-17.38-19.763-32.618-27.983-45.361l-31.15,9.165-3.148-3.462-.228-.652.207.653,3.147,3.466.01,0,66.737,73.579.035.047-4.8-.592-65.34-72.041-.024.007-2.2-2.419a1.563,1.563,0,0,1-.311-.53,1.185,1.185,0,0,0,.307.533l2.186,2.419-27.21,8.008-.136-.182.143.193,43.89,58.16,48.684,5.9,1.46,1.582-1.456-1.608,4.806.585,0,0Zm-72.826-6.665.081-.169h0Zm-69.451-5.322a2.165,2.165,0,0,0-.187.307,1.477,1.477,0,0,1,.2-.289,1.45,1.45,0,0,1,1.173-.593,1.438,1.438,0,0,1,.79.227,1.391,1.391,0,0,0-.778-.249A1.523,1.523,0,0,0,670.332-5226.977Zm-20.389-46.682-.074.981,74.023-21.793-16.762-52.677h-.009c-14.124-1.171-33.38-3.149-53.12-5.252C653.51-5337.078,652.337-5306.072,649.943-5273.658Zm26.222-2.568a1.439,1.439,0,0,0-.784-.94A1.5,1.5,0,0,1,676.165-5276.227Zm48.234-16.716-.484-1.523-.011,0Zm-13.947-53.945,16.41,51.537,31.559-9.294c.756,1.151,1.512,2.312,2.269,3.5-.743-1.183-1.486-2.349-2.23-3.455-2.706-4.171-5.207-7.984-7.6-11.441-16.14-23.953-21.972-28.839-23.535-29.793h-.1c-3.125,0-9.061-.357-16.767-1.073-.47-.054-.962-.083-1.465-.11Zm92.464,17a3.033,3.033,0,0,0,.2.3,2.041,2.041,0,0,1-.172-.3l-1.3-2.329Zm-70.834-16.969a6.462,6.462,0,0,1-1.1-.884A5.834,5.834,0,0,0,732.082-5346.857Zm7.08-.38a6.891,6.891,0,0,0,2.19-2.767A7.256,7.256,0,0,1,739.162-5347.237Zm92.179-.109q-.289-1.844-.576-3.689Q831.05-5349.189,831.341-5347.346Zm-102.248-5.879a8.436,8.436,0,0,0,.006.97,7.439,7.439,0,0,1,.028-.963c.005-.049.019-.184.043-.4A2.2,2.2,0,0,1,729.093-5353.225ZM491.037-5018.707c-1.873-9.886-3.643-21.555-5.1-34.772l-30.5,34.755h-2.567a1.568,1.568,0,0,0-.123-1.1c-.054-.125-.515-1.074-1.31-2.572l33.745-38.472c.216,2.354.463,4.671.712,6.933-.206-2.254-.494-4.607-.69-6.959-1.354-13.944-2.29-29.555-2.5-46.238v-5.961a481.045,481.045,0,0,1,14.267-117.981l2.981,1.936-2.979-2-39.15-26.539c.932-4.8,1.632-8.31,1.983-10.15a6.834,6.834,0,0,0-2.567-6.9l43.545,29.527,7.309,4.945a7.012,7.012,0,0,1,1.712,9.488,7.1,7.1,0,0,1-.588.835,6.891,6.891,0,0,0,.562-.783,7.018,7.018,0,0,0-1.665-9.532l-7.29-5.006a400.7,400.7,0,0,1,16.557-46.714c.729-1.789,1.457-3.577,2.292-5.364a395.7,395.7,0,0,1,20.723-40.876l.311-.552q-.159.278-.318.555l-9.928-11.522,1.55-2.7.068-.122.628-1.342-.632,1.334-.065.124-1.554,2.692-.907-1.054.894,1.064-25.062,43.454-1.791-1.125,1.776,1.122-.082.149.087-.15,14.283,8.916c-.761,1.78-1.562,3.557-2.281,5.336l-18.363-11.448,4.96-1.275a1.759,1.759,0,0,0,.347-.153,1.56,1.56,0,0,1-.372.149l-4.938,1.273,0,0-35.28,9.191h0l-13.462,14.819-1.476-.985,1.459,1.012,6.726,4.515a6.4,6.4,0,0,0-2.177-.833,6.14,6.14,0,0,0-.629-.072c.207.024.413.061.628.1a6.289,6.289,0,0,1,2.155.814,2.59,2.59,0,0,1,.28.189,6.868,6.868,0,0,1,2.572,6.9c-.363,1.819-1.033,5.391-1.986,10.158-5.175,26.527-18.246,92.31-27.874,132.447l0,.008,26.233,6.045-.174.646.178-.648h0l14.435-52.555-7.2-2.629a1.578,1.578,0,0,1-.925-1.824l9.3-44.068a1.612,1.612,0,0,1,1.532-1.314.869.869,0,0,1,.271.029,1.514,1.514,0,0,1,1.138,1.854L465.71-5177l7.283,2.687a1.562,1.562,0,0,1,.9,1.913l-14.79,53.887,23.56,5.431v1.6c0,1.454.016,2.9.033,4.337l-54.123-12.469,0,.017c-2.995,12.042-5.57,21.137-7.36,25.085-3.47,7.653-13.882,14.424-34.925,27.156-.638.42-1.289.812-1.952,1.214q.994-.584,1.954-1.17c7.385,15.455,15.7,31.826,24.849,48.589H395.891q-10.713-20.057-21.05-41.662l1.355-.827-1.359.816c-2.1,1.318-4.254,2.634-6.464,4.015l-.007-.019q-4.111,2.55-8.364,5.27l-6.034-11.939q5.079-3.247,9.966-6.254l0,.014q2.637-1.689,5.187-3.189h0c-.19-.434-.358-.821-.548-1.254-4.611-9.933-8.935-19.668-12.974-29.116a338.6,338.6,0,0,1-5.469-48.364l-.01-.026a339.092,339.092,0,0,0,5.47,48.4c-5.418-12.6-10.335-24.612-14.73-35.769q-.953-2.405-1.866-4.754v-37.692c2.836,7.9,6.141,16.851,9.9,26.621l1.042-2.2q.005.19.011.38,0-.187-.01-.374l19.545-41.3-15.566-12.119c.192-1.18.386-2.391.6-3.6l16.375,12.754,0-.009.266.207-.265-.208,5.991-12.663a2.994,2.994,0,0,0,.424,3.2c.043.045.088.09.134.134q-.069-.067-.13-.138a2.969,2.969,0,0,1-.421-3.185v-.011c.016-.027.016-.055.033-.092.041-.083.086-.163.133-.24l30.431-64.289-.006,0,.005-.012-33.764-20.862c.095-.4.194-.8.295-1.2q-.152.6-.3,1.2l-1.99-1.234-4.875,11.892-1.187-.67a1.382,1.382,0,0,0-.683-.18,1.566,1.566,0,0,0-1.372.874,1.132,1.132,0,0,0-.061.122l6.122-14.941a1.654,1.654,0,0,1,.935-.925,1.432,1.432,0,0,1,.5-.091,1.408,1.408,0,0,1,.74.208l2.7,1.669-.16.633.164-.643,34.315,21.225-1.189,2.536,1.186-2.506h0l3.5-7.4,2.846,1.937-2.834-1.933L377.111-5312.4q.865-3.4,1.711-6.8-.861,3.4-1.726,6.8l-28.839-19.549L339-5281.568V-5352.3c4.315,1.465,6.718,2.282,6.856,2.333a5.788,5.788,0,0,1,1.424.709l3.695,2.5,25.46,17.259,4.258,2.885-4.258-2.885,10.517-22.511.01-.042,3.84-8.224,2.239,1.339.03.016a.415.415,0,0,1-.04-.026l-2.219-1.328h0l-1.657-1h0l-31.976-19.233-6.2,33.749-3.695-2.5a5.788,5.788,0,0,0-1.424-.709c-.138-.05-2.541-.867-6.856-2.333v-.394l6.856-38.641.826-37.164h13.064l-1.949,44.608-.619,3.386.619-3.385,32.124,19.317,2.521,1.515a2.853,2.853,0,0,1,1.486-.583l0,0h.012l17.646-64.107.007,0,.44-.751h3.492l-.036.062.037-.062h17.888l-11.364,2.915,40.02,37.885h0l.665.159-.662-.16-2.206-40.789H463.1l2.216,40.832h0l.455,1.407a1.7,1.7,0,0,1-.939,2.083l-.018.008.026-.007a1.714,1.714,0,0,0,.941-2.084l-.458-1.407,9.885-40.84h9.724l-17.988,46.431,0,.009-20.392,39.029-1.658-1.04-.015-.009.009.006,1.639,1.046,22.078,13.769,33.188-53.768,2.055,2.391-32.7,52.971,0,0-1.005,1.628-.752,4.051,0,0-4.493,24.111,0,.011,30.414-7.932,1.745,1.087-1.725-1.087h0l-25.923-16.178.76-4.061,1-1.632,31.642,19.776,25.571-44.259-.006-.007,1.05-1.82,1.561-3.291-1.569,3.28-1.048,1.839-24.514-28.489h0l-2.062-2.4,0-.006-9.88-45.459h7.49l8.873,42.771,22.867,28.124h0l2.139,2.482h0l10.133,11.769-.36.6q.18-.292.36-.58c5.415-9.059,11.246-17.994,17.39-26.576q.09.257.174.507-.077-.242-.156-.484c-2.5-7.859-5.96-50.156-10.029-58.625h14.658c2.946,6.588,5.494,47.057,7.5,53.3.267.827.458,1.367.042.056,4.372.477,9.476,1.071,15,1.668,1.04.118,2.186.238,3.331.356,3.852.478,7.81.834,11.872,1.311l.047.006c-.57-7.683-1.589-49.28-2.954-56.7h5.522c1.353,7.679,2.361,49.442,2.892,57.293h.012c10,1.192,20.619,2.265,31.344,3.457,0,1.31,1.206,2.907,1.1,6.245-10.622-1.193-21.034-2.265-30.615-3.337-.611-.078-1.211-.143-1.808-.2.611.07,1.227.146,1.849.231l8.683,89.809.165,1.387-.153-1.42,16.646,3.424c-.16,1.934-.32,3.87-.427,5.8l-16.459-3.36-.006.039L601.4-5149.679q8.971-8.837,18.34-16.968c-1.019,6.017-1.906,12.8-2.7,20.172A402.222,402.222,0,0,0,568.6-5091.98c-.974,1.3-1.95,2.653-2.882,3.952a408.09,408.09,0,0,0-29.228,46.71c-4.391,8.079-8.116,15.688-11.22,22.469l-.043.119h-14.1c3.681-8.494,8.381-18.342,14.194-29.135,2.882-5.366,5.9-10.676,9-15.924l.028-.046,9.641-63.614h0l-48.264,4.329c0,.006,0,.013,0,.019-.1,3.692-.1,7.389-.1,10.963a509.337,509.337,0,0,0,8.747,93.431Zm-123.6-40.234q-.454-1.261-.9-2.534Q366.985-5060.2,367.441-5058.94Zm174.1-16.581,0,0c6.7-10.557,13.883-20.818,21.467-30.667q9.844-12.831,20.535-24.772,1.474-1.643,2.955-3.277-1.482,1.616-2.951,3.248l-34.074,3.056-3.139.28,3.143-.25Zm-161.255-4.525.287.581-.18.115.175-.1c7.78-4.7,14.5-8.842,19.731-12.479,7.836-5.456,9.152-7.776,9.347-8.215a75.661,75.661,0,0,0,3.077-9.408c.045-.17.09-.339.136-.51q-.07.246-.14.487c-8.743-5.67-19.405-21.111-21.852-35.624-2.181-12.959-25.5-15.408-32.91-15.858l.1-.218-.1.211h0l-6.389,13.5C359.433-5127.462,369.038-5104.407,380.29-5080.046Zm13.541-65.845c2.3,13.566,12.267,27.6,19.787,33.027q-.077.3-.154.593.08-.3.159-.609c4.17-15.613,10.159-42.516,16.316-71.8v-.005l-49.46-23.936h0l-21.02,44.409-.027,0,.026,0h0C368.487-5163.559,391.385-5160.466,393.831-5145.891Zm65.063,28.124.2-.729h0Zm-30.076-2.838q.383-1.561.771-3.187Q429.2-5122.169,428.818-5120.605Zm76.173-87.467a467.63,467.63,0,0,0-9.163,79.132c0,.134,0,.269,0,.4l.009-.348,49.043-4.394,5.494-.492,38.919-3.489-.6.646q.31-.332.622-.661c1.862-2,3.814-4.009,5.721-6.017l.008-.008,7.565-51.252,1.778.234-1.767-.245-42.14-5.822-5.314-.735-50.129-6.928q.269-1.328.542-2.661C505.383-5209.84,505.187-5208.969,504.991-5208.072Zm-154.144,58.664-.286-.734Q350.7-5149.776,350.847-5149.409Zm3.849-12.229a1.574,1.574,0,0,0,.2.177,1.49,1.49,0,0,1-.2-.185,1.4,1.4,0,0,1-.092-.114C354.632-5161.718,354.663-5161.678,354.7-5161.638Zm.8-2.7a1.431,1.431,0,0,1,.372-.049h.02c.133,0,.547.011,1.192.038-.644-.029-1.057-.039-1.19-.039h-.019A1.41,1.41,0,0,0,355.5-5164.34Zm75.659-26.17q-.6,2.908-1.21,5.787c.418-1.932.807-3.862,1.224-5.792,5.316-25.461,10.688-52.3,15.083-75l-29.4-19.93-33.911,71.6Zm-60.033-6.521a1.433,1.433,0,0,0,.593-.132,1.471,1.471,0,0,1-.593.127,1.382,1.382,0,0,1-.684-.181A1.32,1.32,0,0,0,371.126-5197.032Zm235.007-2.871v0l-.256-.033Zm-50.116-6.925,5.316.73,42.11,5.823h0l10.328-70h0l-41.414-8.479,0,.014-11.024,72.633-5.308-.75,11.063-72.981-37.538-7.688a417.02,417.02,0,0,0-23.3,73.817Zm-177.9-2.945,1.192.576-1.195-.58a2.7,2.7,0,0,1-.282-.16A2.562,2.562,0,0,0,378.113-5209.772Zm2.381-5.259,1.632.791-1.627-.8a2.93,2.93,0,0,0-1.094-.256,2.676,2.676,0,0,0-1.9.837,2.737,2.737,0,0,1,1.908-.816A2.424,2.424,0,0,1,380.495-5215.031Zm66.637-55.042c-.2,1.121-.431,2.259-.645,3.413.23-1.146.456-2.309.666-3.436a7.45,7.45,0,0,1,.673-1.98A7.505,7.505,0,0,0,447.132-5270.073Zm166.551-6.121.417,3.669-.2,1.442.215-1.434-.428-3.714-8.622-89.2.573.055q-.305-.035-.614-.074c-4.894-.6-9.476-1.073-13.537-1.551-1.145-.118-2.186-.239-3.229-.356-7.288-.834-14.088-1.245-14.088-1.245s-32.2,52.659-42.3,75.649l19.864,4.076-.756,1.515.76-1.515,1.066.218-1.066-.222,36.516-78.46c1.032.136,2.09.228,3.183.364l-36.643,78.724Zm5.807,3.936-.02.134.022-.143a2.025,2.025,0,0,0,.015-.709A2.888,2.888,0,0,1,619.489-5272.258Zm-209.081-4.376h0c-.038,0-.076,0-.113,0C410.333-5276.636,410.37-5276.634,410.408-5276.634Zm-.117-.005h0Zm-.025,0h0Zm1.488-.808a1.586,1.586,0,0,1-1.186.806,1.589,1.589,0,0,0,1.188-.792,1.873,1.873,0,0,0,.154-.381A1.758,1.758,0,0,1,411.754-5277.449Zm-.486-2.2a1.481,1.481,0,0,1,.6.743,1.489,1.489,0,0,0-.606-.756l-.913-.552Zm156.02-1.483.208-1.361,5.321.687v-.005l-5.327-.693Zm-144.3-16.806,24.729,16.734.008.005,12.795-14.108-29.8-17.427,1.116-2.166-1.129,2.159-.259-.152.266.157-7.74,14.788ZM550.8-5284.761a1.629,1.629,0,0,0,.394.309,1.428,1.428,0,0,0,.163.074,1.386,1.386,0,0,1-.158-.073,1.437,1.437,0,0,1-.391-.312,1.663,1.663,0,0,1-.292-1.644A1.654,1.654,0,0,0,550.8-5284.761Zm2.222-.077a1.555,1.555,0,0,0,.124-.166A1.651,1.651,0,0,1,553.018-5284.838Zm.886-1.657.883-1.754h0Zm-23.312-3.553q.489-1.131.983-2.262C531.233-5291.556,530.908-5290.8,530.591-5290.048Zm-66.137-5.44a2.073,2.073,0,0,1-.168.5,1.336,1.336,0,0,0,.169-.479l.205-1.124Zm-2.874-.983-.109.123.113-.124.088-.458Zm.34-1.749,4.739-25.471,2.516,1.566-2.511-1.565.588-3.168a1.792,1.792,0,0,1,.118-.381,1.757,1.757,0,0,0-.122.385l-.6,3.161-22.762-14.23-.018-.011L432.2-5315.607l-1.011-.583,1.01.591,0-.005Zm-81-28.235,37.589,25.469,7.749-14.839.006,0,0-.009-21.828-17.949-.173-.175a1.482,1.482,0,0,1-.261-.393l-9.415-21.311.67-1.469-.685,1.466-1.415-3.212-.015-.007-.025-.012.038.02,1.4,3.223-13.641,29.194Zm121.869,18.61.025-.042,0,0Zm-74.6-6.377.047.029-.057-.04-.5-.408Zm-30.508-42,8.935,20.092,21.136,17.433-.692,1.344.709-1.358.01.008L439-5340.192l2.779,1.065L439-5340.2l-41.284-16.032-2-4.479,1.2-2.028,44.765,17.389,2.047.782-2.034-.789,19.177-36.677,1.471-2.825-1.481,2.824-46.225-44.973,0,0-1.316-.312,1.311.319L396.9-5362.763l-.847-.315.847.336-1.195,2.018,2,4.5-2.132-.842Zm-16.8,29.751-.2-.138,0,.013Zm61.952-12.1-.6-.373-.008,0Zm-49.1-20.166a1.528,1.528,0,0,0,1.243-.652,1.539,1.539,0,0,1-1.235.647,1.428,1.428,0,0,1-.228-.018A1.16,1.16,0,0,0,393.739-5358.74Zm1.423-.958a1.664,1.664,0,0,0,.157-.667A1.73,1.73,0,0,1,395.161-5359.7Zm-3.556-2.271-.371.794.371-.792a3.041,3.041,0,0,1,.844-1.084h0A3.033,3.033,0,0,0,391.605-5361.97Zm216.449-9.3c-1.571-.163-3.126-.374-4.659-.523C604.974-5371.589,606.486-5371.39,608.054-5371.267Zm-140.768-11.455v0l-.59-.332Zm37.94-3.008a1.645,1.645,0,0,1,.4,2.216l-.386.626.382-.613a1.668,1.668,0,0,0-.389-2.238,1.534,1.534,0,0,0-.8-.245,1.516,1.516,0,0,0-1.208.632,1.537,1.537,0,0,1,1.212-.62A1.4,1.4,0,0,1,505.226-5385.729Zm-40.943,1.671a1.375,1.375,0,0,0,.373-.051,1.455,1.455,0,0,1-.372.049,1.4,1.4,0,0,1-.323-.038A1.34,1.34,0,0,0,464.283-5384.058Zm-1.056-.481a1.539,1.539,0,0,0,.12.117,1.415,1.415,0,0,1-.117-.118,1.56,1.56,0,0,1-.12-.157A1.653,1.653,0,0,0,463.227-5384.539Zm-.31-.544a1.91,1.91,0,0,0,.094.216,1.484,1.484,0,0,1-.089-.222l-.041-.125h0Zm-.112-.177-.19-.11-.005.01Zm-32.746-40.751a1.421,1.421,0,0,0,1.048.478h.006a1.406,1.406,0,0,1-1.049-.479,1.55,1.55,0,0,1-.324-.6A1.656,1.656,0,0,0,430.059-5426.012Zm2.594-1.542a1.69,1.69,0,0,1-1.15,1.967,1.363,1.363,0,0,1-.166.036,1.681,1.681,0,0,0,.174-.035,1.719,1.719,0,0,0,1.155-1.968l-.137-.6ZM448.2-5018.724l1.027-1.181c.248.5.461.884.6,1.181Zm394.84-.014c-7.935-1.394-23.64-5.576-23.64-5.576l1.268-5.642,26.437,6.246,48.272-114.912c.424,5.17.845,10.352,1.257,15.5l-45.12,103.528a3.419,3.419,0,0,1-.375.854S850.971-5017.344,843.036-5018.738Zm-275.059-.247-2.269-69.023c.944-1.321,1.912-2.643,2.889-3.963l2.4,72.987ZM437.2-5038.707c-8.268-10.57-5.07-23.384-4.938-23.915l.02-.046,9.167-31.731a1.593,1.593,0,0,1,1.5-1.2,2.312,2.312,0,0,1,.383.043,1.575,1.575,0,0,1,1,1.978l-9.168,31.709c-.125.489-2.764,11.9,4.375,21.031a131.318,131.318,0,0,1,11.891,18.432l-2.2,2.507A132.1,132.1,0,0,0,437.2-5038.707Zm333.149-6.026,22.746-18.793,13.388-67.913,2.873.912-13.432,68.153a1.628,1.628,0,0,1-.58.99l-25.391,20.974ZM555.163-5201.106l5.308.75-10.1,66.569-5.494.5Zm68.176,18.372h.015Zm.093-.278c-.015,0-.015,0-.015.14C623.417-5183.012,623.417-5183.012,623.432-5183.012Zm-.053.14h.014Zm.091-.279-.014.14Zm.041-.139-.015.139ZM339-5221.641v-6.718l24.538-59.875a1.665,1.665,0,0,0,.25,1.685,1.668,1.668,0,0,1-.25-1.685l.015-.042a1.111,1.111,0,0,1,.061-.121,1.566,1.566,0,0,1,1.372-.875,1.382,1.382,0,0,1,.683.18l1.187.67,3.66,2.067-.16.647.161-.646,18.092,10.208a1.63,1.63,0,0,1,.568,2.17,1.576,1.576,0,0,1-1.375.874,1.328,1.328,0,0,1-.681-.184l-17.41-9.821h0l-4.087-2.306-5.689,13.882-.569-.333a1.4,1.4,0,0,0-.7-.188,1.565,1.565,0,0,0-1.361.852,1.724,1.724,0,0,0-.209.813,1.724,1.724,0,0,1,.209-.812,1.565,1.565,0,0,1,1.361-.852,1.4,1.4,0,0,1,.7.188l.569.333,6.075,3.554v0l14.375,8.407a1.633,1.633,0,0,1,.539,2.181,1.579,1.579,0,0,1-1.365.851,1.376,1.376,0,0,1-.7-.192l-13.63-7.973h0l-6.526-3.817-5.1,12.441-.757-.415a1.386,1.386,0,0,0-.666-.168,1.569,1.569,0,0,0-1.383.893,1.742,1.742,0,0,0-.187.769,1.742,1.742,0,0,1,.187-.769,1.571,1.571,0,0,1,1.383-.893,1.386,1.386,0,0,1,.666.168l.757.415,8.54,4.643,10.909,5.935a1.627,1.627,0,0,1,.6,2.162,1.575,1.575,0,0,1-1.387.893,1.39,1.39,0,0,1-.665-.169l-10.19-5.545q.245-1.105.5-2.217-.251,1.11-.5,2.217l-9.033-4.913-5.6,13.673-1.023-.562a1.41,1.41,0,0,0-.666-.17h0a1.409,1.409,0,0,1,.667.17l1.023.562,11.418,6.252q-.257,1.258-.509,2.51.253-1.252.509-2.51l6.7,3.67a1.617,1.617,0,0,1,.591,2.161,1.568,1.568,0,0,1-1.379.89,1.421,1.421,0,0,1-.67-.17l-5.911-3.236h0l-11.98-6.562-1.253-.686,1.252.686-4.9,11.958,13.874,10.789c-.2,1.207-.4,2.4-.6,3.6Zm4.692-17.6a1.747,1.747,0,0,0-.188.8,1.752,1.752,0,0,1,.188-.8,1.618,1.618,0,0,1,.974-.829A1.616,1.616,0,0,0,343.692-5239.243ZM531.14-5357.619l11.158-23.493-7.5-47.379h3.53l6.974,46.422a1.7,1.7,0,0,1,.043,1.525l-12.074,25.409Zm319.362-7.109,38.5-14.105v6l-35.456,12.991ZM587.934-5373.5l-7.313-55H583.9l7.433,55.367C590.178-5373.27,589.052-5373.361,587.934-5373.5Zm-179.55-55h3.652l-.456.761Z" transform="translate(-232 7327.756)" stroke="rgba(0,0,0,0)" stroke-width="1" opacity="0.12" fill="url(#radial-gradient)"/>
    </g>
</svg>