<svg xmlns="http://www.w3.org/2000/svg" width="559.633" height="454.422" viewBox="0 0 559.633 454.422">

    <g id="Group_107275" data-name="Group 107275" transform="translate(-107.068 -905.043)">
        <g id="Group_107016" data-name="Group 107016" transform="translate(107 1204.926)">
            <path id="Path_116283" data-name="Path 116283" d="M284.979,1000.774q-7.928-2.3-15.9-4.623-3.251-.954-6.524-1.907-4.727-1.384-9.477-2.777-15.877-4.656-31.894-9.41-3.974-1.174-7.956-2.361t-7.959-2.376l-7.946-2.381-7.935-2.377q-3.968-1.2-7.929-2.4l-7.922-2.4-7.907-2.392-7.889-2.39q-7.867-2.389-15.726-4.8-7.825-2.4-15.643-4.818-7.781-2.408-15.555-4.835-7.739-2.414-15.459-4.848Q89.366,941.8,83.384,939.9l-.539,107.544s.207,5.189,5.708,10.623a18.122,18.122,0,0,0,12.318,5.192H232.113l36.782-29.36,34.74-27.731Q294.344,1003.487,284.979,1000.774Z" transform="translate(-82.777 -908.78)" fill-rule="evenodd" fill="url(#linear-gradient)"/>
            <path id="Path_116284" data-name="Path 116284" d="M258.558,1059.176c-.619-.2-1.528-.484-2.689-.849s-2.56-.807-4.164-1.314l-5.375-1.7c-1.967-.624-4.09-1.3-6.335-2.012s-4.59-1.461-7.025-2.234-4.926-1.566-7.462-2.373-5.09-1.618-7.643-2.432c-1.945-.618-3.891-1.236-5.814-1.853s-3.81-1.219-5.671-1.818-3.673-1.179-5.435-1.746-3.459-1.116-5.091-1.643c-.512-.164-1.012-.324-1.507-.485l-1.463-.47c-.477-.155-.944-.306-1.409-.456s-.917-.294-1.36-.438l-5.084-1.637c-1.507-.485-2.822-.907-3.9-1.257s-1.927-.622-2.507-.807-.882-.285-.882-.285l-1.179-8.285.871.28,2.469.787c1.068.34,2.366.751,3.849,1.226l5.017,1.6c.25.078.506.159.762.242s.517.165.779.248l.8.254.812.259,5.478,1.744,5.948,1.895,6.291,1.994c2.139.674,4.307,1.359,6.478,2.04l7.536,2.367c2.5.783,4.96,1.557,7.348,2.308l6.923,2.176,6.239,1.964c1.941.6,3.715,1.158,5.3,1.65s2.963.924,4.1,1.278,2.036.636,2.644.828.938.294.938.294l2.366,8.963-.951-.3ZM83.48,925.875l-.337,68.659,2.963.993q1.636.551,3.245,1.089c1.075.358,2.139.716,3.185,1.065L95.62,998.7c1.007.336,2,.664,2.963.984s1.906.631,2.815.934l2.64.878,4.634,1.53,3.584,1.186c1,.33,1.78.589,2.321.766l.818.271.32,7.767-.829-.279c-.547-.182-1.342-.448-2.348-.787s-2.236-.749-3.641-1.219l-4.7-1.572-2.672-.895-2.855-.959-3-1.009-3.135-1.052q-1.588-.537-3.219-1.092l-3.293-1.114-2.917-.987-.258,51.376a19.456,19.456,0,0,0,7.382,11.765c6.272,4.5,14.916,3.648,14.916,3.648H595.888l-286.81-79.235q-9.3-2.512-18.658-5.056-15.873-4.316-31.909-8.728-15.879-4.369-31.889-8.824-3.977-1.1-7.964-2.215t-7.96-2.229l-7.946-2.233q-3.966-1.114-7.935-2.227l-7.931-2.248q-3.958-1.124-7.918-2.248t-7.906-2.243q-3.951-1.118-7.9-2.24l-1.611-.459-1.609-.46c-.536-.155-1.075-.306-1.609-.459l-1.611-.461q-7.049-2.015-14.09-4.048-7.014-2.022-14.028-4.059-6.978-2.028-13.951-4.074-6.946-2.032-13.879-4.079Q92.118,928.458,83.48,925.875Z" transform="translate(-82.777 -914.365)" fill="#666" fill-rule="evenodd"/>
            <path id="Path_116285" data-name="Path 116285" d="M283.135,973.158q-22.964-6.116-46.382-12.461-23.075-6.254-46.5-12.728-2.9-.805-5.814-1.612l-5.8-1.614q-2.9-.807-5.807-1.612c-1.928-.538-3.869-1.075-5.8-1.612s-3.858-1.084-5.791-1.626l-5.784-1.621-5.786-1.62q-2.884-.81-5.779-1.619l-5.763-1.633q-2.882-.812-5.755-1.629l-5.758-1.632q-2.867-.818-5.734-1.64l-2.866-.821q-1.435-.409-2.866-.821l-2.862-.821q-1.435-.407-2.861-.818c-.951-.275-1.906-.549-2.857-.823s-1.9-.55-2.855-.825-1.9-.548-2.85-.824-1.9-.549-2.85-.825l-2.844-.826c-.944-.274-1.895-.549-2.838-.826s-1.895-.551-2.845-.826-1.888-.551-2.838-.826-1.888-.552-2.833-.832l-.482-.141-.024,4.8q8.561,2.53,17.138,5.032,7.62,2.221,15.25,4.428,7.664,2.217,15.336,4.417,7.714,2.21,15.428,4.4,7.745,2.2,15.5,4.388,3.891,1.091,7.781,2.178l7.794,2.185q3.9,1.093,7.8,2.187l7.816,2.188,7.822,2.17q3.918,1.087,7.827,2.174,3.926,1.089,7.845,2.17t7.838,2.156q15.77,4.335,31.408,8.587,15.787,4.289,31.413,8.487c5.961,1.6,246.88,68.107,335.452,92.521h19.511C577.725,1054.382,290.906,975.23,283.135,973.158Z" transform="translate(-82.568 -917.643)" fill="#666" fill-rule="evenodd"/>
            <path id="Path_116286" data-name="Path 116286" d="M83.012,982.5l2.917.987,3.293,1.115q1.63.552,3.219,1.092l3.135,1.052,3,1.009,2.855.959c.921.308,1.815.608,2.672.9l4.7,1.572c1.405.47,2.627.881,3.641,1.219s1.8.605,2.348.787l.829.28-.32-7.767-.818-.271c-.541-.177-1.32-.436-2.321-.766l-3.584-1.186-4.634-1.53-2.64-.878q-1.363-.455-2.815-.934c-.966-.32-1.956-.649-2.963-.984l-3.083-1.021c-1.046-.35-2.11-.708-3.185-1.065s-2.155-.722-3.245-1.089q-1.479-.491-2.963-.993Z" transform="translate(-82.683 -894.81)" fill="#fff" fill-rule="evenodd"/>
            <path id="Path_116287" data-name="Path 116287" d="M149.854,996.829l1.179,8.285s.308.1.882.285,1.428.458,2.5.807,2.394.772,3.9,1.257l5.084,1.637c1.871.6,3.9,1.255,6.046,1.951s4.437,1.429,6.8,2.187,4.811,1.548,7.309,2.346,5.045,1.615,7.6,2.426,5.117,1.625,7.648,2.43,5.034,1.6,7.457,2.373,4.789,1.523,7.025,2.234,4.368,1.388,6.335,2.012l5.375,1.7c1.6.508,3.009.948,4.164,1.314s2.069.653,2.689.849l.951.3-2.366-8.963s-.324-.1-.938-.294-1.509-.471-2.644-.828-2.521-.784-4.1-1.278-3.354-1.049-5.3-1.65l-6.239-1.964-6.923-2.176c-2.388-.751-4.85-1.525-7.348-2.308s-5.017-1.576-7.536-2.364-5.027-1.583-7.49-2.364-4.874-1.544-7.206-2.286l-6.693-2.131c-2.116-.675-4.119-1.31-5.955-1.9l-5.017-1.6c-1.484-.475-2.781-.886-3.849-1.226l-2.469-.787Z" transform="translate(-56.065 -886.109)" fill="#fff" fill-rule="evenodd"/>
            <path id="Path_116288" data-name="Path 116288" d="M287.315,978.23q-15.623-4.2-31.413-8.487-15.634-4.251-31.408-8.587-3.907-1.07-7.838-2.156t-7.845-2.17q-3.907-1.086-7.827-2.174l-7.822-2.17-7.816-2.188q-3.9-1.095-7.8-2.187l-7.794-2.186q-3.891-1.087-7.781-2.178-7.748-2.185-15.5-4.387-7.714-2.192-15.428-4.4-7.67-2.2-15.336-4.417-7.628-2.2-15.25-4.428-8.576-2.5-17.138-5.032l-.032,6.706q8.637,2.584,17.3,5.141,7.729,2.28,15.459,4.544,7.783,2.276,15.558,4.533,7.825,2.269,15.643,4.519,7.865,2.263,15.729,4.5,3.949,1.122,7.9,2.24t7.906,2.243q3.96,1.126,7.918,2.248L194.617,960q3.968,1.112,7.935,2.227l7.946,2.233q3.987,1.12,7.96,2.229t7.964,2.215q16.007,4.457,31.889,8.824,16.034,4.413,31.909,8.728c4.671,1.27,203.218,56.1,305.368,84.291h27.179C534.2,1046.338,293.275,979.831,287.315,978.23Z" transform="translate(-82.577 -916.275)" fill="#edeced" fill-rule="evenodd"/>
            <path id="Path_116289" data-name="Path 116289" d="M115.387,978.836c.025-5.134,35.22-9.125,78.608-8.912s78.543,4.548,78.517,9.684-35.22,9.123-78.608,8.911-78.542-4.548-78.517-9.683h-.354c-.025,5.158,35.288,9.512,78.87,9.726s78.938-3.793,78.962-8.951-35.281-9.514-78.87-9.728-78.937,3.795-78.962,8.953Z" transform="translate(-69.932 -896.844)" fill="#656565" fill-rule="evenodd"/>
            <path id="Path_116290" data-name="Path 116290" d="M115.134,978.846c.025-5.158,35.379-9.167,78.962-8.953s78.9,4.569,78.87,9.728-35.374,9.165-78.962,8.951-78.895-4.568-78.87-9.726h-.354c-.025,5.181,35.448,9.556,79.223,9.769s79.3-3.81,79.321-8.99-35.448-9.557-79.229-9.772-79.289,3.812-79.316,8.993Z" transform="translate(-70.033 -896.856)" fill="#656565" fill-rule="evenodd"/>
            <path id="Path_116291" data-name="Path 116291" d="M114.88,978.856c.027-5.182,35.54-9.208,79.316-8.993s79.254,4.59,79.229,9.772-35.54,9.206-79.321,8.991-79.249-4.589-79.223-9.769h-.352c-.025,5.2,35.6,9.6,79.576,9.813s79.649-3.827,79.674-9.031-35.606-9.6-79.581-9.814-79.643,3.827-79.668,9.033Z" transform="translate(-70.133 -896.867)" fill="#656565" fill-rule="evenodd"/>
            <path id="Path_116292" data-name="Path 116292" d="M114.629,978.867c.025-5.206,35.694-9.249,79.668-9.033s79.607,4.61,79.581,9.814-35.7,9.247-79.674,9.031-79.6-4.61-79.576-9.813l-.354,0c-.025,5.227,35.761,9.641,79.93,9.858s80-3.845,80.027-9.072-35.761-9.641-79.935-9.857-80,3.844-80.022,9.072Z" transform="translate(-70.234 -896.879)" fill="#656565" fill-rule="evenodd"/>
            <path id="Path_116293" data-name="Path 116293" d="M114.376,978.876c.027-5.228,35.853-9.288,80.022-9.072s79.96,4.63,79.935,9.857-35.853,9.288-80.027,9.072-79.955-4.631-79.93-9.858h-.354c-.025,5.25,35.92,9.683,80.283,9.9s80.355-3.862,80.381-9.112-35.92-9.683-80.287-9.9-80.35,3.862-80.377,9.112Z" transform="translate(-70.334 -896.891)" fill="#656565" fill-rule="evenodd"/>
            <path id="Path_116294" data-name="Path 116294" d="M114.122,978.887c.027-5.25,36.014-9.33,80.377-9.112s80.313,4.651,80.287,9.9-36.014,9.33-80.381,9.112-80.308-4.651-80.283-9.9h-.352c-.025,5.273,36.073,9.725,80.636,9.944s80.708-3.879,80.734-9.151-36.078-9.726-80.64-9.946-80.7,3.879-80.729,9.153Z" transform="translate(-70.435 -896.903)" fill="#656565" fill-rule="evenodd"/>
            <path id="Path_116295" data-name="Path 116295" d="M113.87,978.9c.027-5.274,36.166-9.371,80.729-9.153s80.666,4.67,80.64,9.946-36.172,9.371-80.734,9.151-80.661-4.672-80.636-9.944h-.352c-.027,5.3,36.232,9.768,80.988,9.988s81.061-3.9,81.087-9.192-36.232-9.769-80.994-9.989-81.057,3.9-81.082,9.193Z" transform="translate(-70.535 -896.915)" fill="#656565" fill-rule="evenodd"/>
            <path id="Path_116296" data-name="Path 116296" d="M113.62,978.908c.025-5.3,36.326-9.413,81.082-9.193s81.02,4.691,80.994,9.989-36.326,9.411-81.087,9.192-81.015-4.692-80.988-9.987l-.359,0c-.027,5.32,36.4,9.811,81.347,10.032s81.414-3.914,81.441-9.233-36.393-9.813-81.347-10.032-81.414,3.914-81.441,9.232Z" transform="translate(-70.637 -896.927)" fill="#656565" fill-rule="evenodd"/>
            <path id="Path_116297" data-name="Path 116297" d="M113.362,978.917c.027-5.319,36.492-9.453,81.441-9.232s81.372,4.712,81.347,10.032-36.488,9.453-81.441,9.233-81.374-4.712-81.347-10.032h-.354c-.027,5.343,36.551,9.853,81.7,10.076s81.774-3.93,81.8-9.273-36.557-9.853-81.705-10.076-81.768,3.931-81.795,9.273Z" transform="translate(-70.738 -896.939)" fill="#656565" fill-rule="evenodd"/>
            <path id="Path_116298" data-name="Path 116298" d="M113.108,978.927c.027-5.343,36.646-9.494,81.795-9.273s81.732,4.733,81.705,10.076-36.652,9.5-81.8,9.273-81.726-4.733-81.7-10.076h-.352c-.027,5.365,36.709,9.9,82.052,10.118s82.126-3.946,82.153-9.312-36.709-9.9-82.058-10.119-82.121,3.947-82.147,9.314Z" transform="translate(-70.839 -896.951)" fill="#656565" fill-rule="evenodd"/>
            <path id="Path_116299" data-name="Path 116299" d="M112.857,978.938c.027-5.366,36.8-9.536,82.147-9.314s82.084,4.753,82.058,10.119-36.805,9.536-82.153,9.312-82.079-4.753-82.052-10.118H112.5c-.027,5.389,36.87,9.938,82.406,10.162s82.48-3.964,82.506-9.353-36.87-9.94-82.411-10.164-82.474,3.964-82.5,9.354Z" transform="translate(-70.939 -896.963)" fill="#656565" fill-rule="evenodd"/>
            <path id="Path_116300" data-name="Path 116300" d="M112.6,978.948c.027-5.39,36.965-9.578,82.5-9.354s82.438,4.774,82.411,10.164-36.965,9.576-82.506,9.353-82.432-4.774-82.406-10.162l-.352,0c-.027,5.412,37.029,9.982,82.758,10.206s82.834-3.981,82.86-9.392-37.029-9.982-82.764-10.207-82.829,3.981-82.855,9.393Z" transform="translate(-71.04 -896.975)" fill="#656565" fill-rule="evenodd"/>
            <path id="Path_116301" data-name="Path 116301" d="M112.352,978.957c.025-5.413,37.124-9.617,82.855-9.393s82.79,4.795,82.764,10.207-37.126,9.617-82.86,9.392-82.785-4.793-82.758-10.206H112c-.027,5.435,37.183,10.024,83.112,10.25s83.186-4,83.214-9.434-37.183-10.024-83.117-10.249-83.182,4-83.208,9.432Z" transform="translate(-71.14 -896.986)" fill="#656565" fill-rule="evenodd"/>
            <path id="Path_116302" data-name="Path 116302" d="M112.1,978.969c.027-5.436,37.278-9.659,83.208-9.432s83.143,4.813,83.118,10.249-37.28,9.659-83.214,9.434-83.138-4.815-83.112-10.25l-.352,0c-.027,5.457,37.341,10.067,83.463,10.292s83.541-4.014,83.568-9.472-37.341-10.069-83.47-10.3-83.534,4.017-83.561,9.476Z" transform="translate(-71.241 -896.999)" fill="#656565" fill-rule="evenodd"/>
            <path id="Path_116303" data-name="Path 116303" d="M111.848,978.979c.027-5.459,37.439-9.7,83.561-9.476s83.5,4.836,83.47,10.3-37.439,9.7-83.568,9.472-83.489-4.835-83.463-10.292h-.359c-.027,5.48,37.506,10.109,83.822,10.336s83.893-4.031,83.921-9.512-37.5-10.111-83.824-10.339-83.894,4.032-83.92,9.515Z" transform="translate(-71.343 -897.011)" fill="#656565" fill-rule="evenodd"/>
            <path id="Path_116304" data-name="Path 116304" d="M111.589,978.989c.027-5.483,37.6-9.743,83.92-9.515s83.85,4.856,83.824,10.339-37.6,9.74-83.921,9.512-83.849-4.856-83.822-10.336l-.352,0c-.028,5.5,37.66,10.152,84.175,10.382s84.247-4.049,84.274-9.554-37.66-10.154-84.176-10.382-84.246,4.051-84.272,9.554Z" transform="translate(-71.444 -897.023)" fill="#656565" fill-rule="evenodd"/>
            <path id="Path_116305" data-name="Path 116305" d="M111.338,979c.027-5.5,37.758-9.782,84.272-9.554s84.2,4.877,84.176,10.382-37.758,9.782-84.274,9.554S111.31,984.5,111.338,979h-.355c-.027,5.527,37.821,10.194,84.53,10.425s84.605-4.068,84.632-9.595-37.818-10.195-84.534-10.424-84.6,4.065-84.628,9.593Z" transform="translate(-71.545 -897.034)" fill="#656565" fill-rule="evenodd"/>
            <path id="Path_116306" data-name="Path 116306" d="M111.083,979.009c.028-5.529,37.918-9.823,84.628-9.593s84.562,4.9,84.534,10.424-37.916,9.824-84.632,9.595-84.556-4.9-84.53-10.425l-.352,0c-.027,5.55,37.979,10.238,84.882,10.467s84.959-4.083,84.987-9.634-37.98-10.238-84.889-10.468-84.953,4.083-84.98,9.635Z" transform="translate(-71.645 -897.047)" fill="#656565" fill-rule="evenodd"/>
            <path id="Path_116307" data-name="Path 116307" d="M110.832,979.019c.027-5.552,38.078-9.865,84.98-9.635s84.916,4.918,84.889,10.469-38.079,9.865-84.987,9.634-84.909-4.918-84.882-10.467h-.354c-.027,5.573,38.134,10.28,85.236,10.51s85.313-4.1,85.339-9.673-38.138-10.281-85.241-10.512-85.306,4.1-85.334,9.674Z" transform="translate(-71.746 -897.058)" fill="#656565" fill-rule="evenodd"/>
            <path id="Path_116308" data-name="Path 116308" d="M110.578,979.03c.028-5.575,38.233-9.906,85.334-9.674s85.269,4.937,85.241,10.512-38.237,9.905-85.339,9.673-85.262-4.937-85.236-10.51l-.352,0c-.028,5.6,38.292,10.322,85.588,10.555s85.665-4.117,85.693-9.714-38.292-10.323-85.594-10.556-85.659,4.118-85.687,9.715Z" transform="translate(-71.846 -897.07)" fill="#656565" fill-rule="evenodd"/>
            <path id="Path_116309" data-name="Path 116309" d="M110.327,979.039c.028-5.6,38.391-9.946,85.687-9.715s85.62,4.958,85.594,10.557-38.391,9.946-85.693,9.714-85.616-4.957-85.588-10.555h-.354c-.027,5.62,38.451,10.367,85.941,10.6s86.02-4.135,86.047-9.754-38.451-10.367-85.946-10.6-86.013,4.133-86.041,9.754Z" transform="translate(-71.947 -897.082)" fill="#656565" fill-rule="evenodd"/>
            <path id="Path_116310" data-name="Path 116310" d="M110.073,979.05c.028-5.621,38.552-9.988,86.041-9.754s85.974,4.978,85.946,10.6-38.55,9.987-86.047,9.754-85.967-4.979-85.941-10.6l-.352,0c-.028,5.643,38.6,10.409,86.293,10.642s86.373-4.151,86.4-9.793-38.609-10.41-86.3-10.645-86.366,4.151-86.394,9.8Z" transform="translate(-72.047 -897.094)" fill="#656565" fill-rule="evenodd"/>
            <path id="Path_116311" data-name="Path 116311" d="M109.823,979.06c.028-5.645,38.7-10.029,86.394-9.8s86.326,5,86.3,10.645-38.71,10.028-86.4,9.793-86.321-5-86.293-10.642h-.359c-.028,5.666,38.77,10.45,86.652,10.685s86.725-4.168,86.753-9.834-38.763-10.452-86.652-10.687-86.725,4.167-86.753,9.835Z" transform="translate(-72.15 -897.106)" fill="#656565" fill-rule="evenodd"/>
            <path id="Path_116312" data-name="Path 116312" d="M109.565,979.071c.028-5.668,38.871-10.07,86.753-9.835s86.68,5.018,86.652,10.687-38.864,10.069-86.753,9.834-86.68-5.02-86.652-10.685l-.354,0c-.027,5.689,38.929,10.494,87.006,10.73s87.079-4.185,87.107-9.874-38.924-10.495-87.006-10.731-87.079,4.186-87.107,9.876Z" transform="translate(-72.25 -897.118)" fill="#656565" fill-rule="evenodd"/>
            <path id="Path_116313" data-name="Path 116313" d="M109.311,979.08c.028-5.689,39.03-10.11,87.107-9.875s87.034,5.04,87.006,10.731-39.024,10.111-87.107,9.874-87.033-5.041-87.006-10.73h-.352c-.028,5.713,39.087,10.536,87.358,10.773s87.438-4.2,87.465-9.915-39.087-10.536-87.363-10.773-87.432,4.2-87.46,9.915Z" transform="translate(-72.351 -897.13)" fill="#656565" fill-rule="evenodd"/>
            <path id="Path_116314" data-name="Path 116314" d="M109.06,979.09c.028-5.713,39.189-10.153,87.46-9.915s87.392,5.06,87.363,10.773-39.188,10.151-87.465,9.915-87.386-5.06-87.358-10.773l-.354,0c-.028,5.736,39.243,10.578,87.711,10.817s87.792-4.219,87.82-9.955S245,969.371,196.52,969.134s-87.786,4.219-87.814,9.955Z" transform="translate(-72.451 -897.142)" fill="#656565" fill-rule="evenodd"/>
            <path id="Path_116315" data-name="Path 116315" d="M108.806,979.1c.028-5.737,39.345-10.193,87.814-9.955s87.744,5.081,87.716,10.817-39.343,10.193-87.82,9.955-87.739-5.081-87.711-10.817h-.352c-.028,5.758,39.4,10.622,88.063,10.86s88.146-4.237,88.173-9.995-39.4-10.622-88.07-10.861-88.138,4.235-88.166,10Z" transform="translate(-72.552 -897.154)" fill="#656565" fill-rule="evenodd"/>
            <path id="Path_116316" data-name="Path 116316" d="M108.555,979.112c.028-5.761,39.5-10.235,88.166-10s88.1,5.1,88.07,10.862-39.5,10.233-88.173,9.995-88.091-5.1-88.063-10.86H108.2c-.028,5.782,39.56,10.663,88.417,10.9s88.5-4.252,88.527-10.034-39.561-10.666-88.424-10.9-88.491,4.252-88.52,10.036Z" transform="translate(-72.653 -897.166)" fill="#656565" fill-rule="evenodd"/>
            <path id="Path_116317" data-name="Path 116317" d="M108.3,979.122c.029-5.785,39.663-10.277,88.52-10.037s88.452,5.122,88.424,10.9-39.663,10.274-88.527,10.034-88.445-5.12-88.417-10.9l-.352,0c-.029,5.805,39.714,10.706,88.769,10.948s88.85-4.27,88.88-10.076-39.714-10.708-88.776-10.948-88.845,4.27-88.873,10.076Z" transform="translate(-72.753 -897.178)" fill="#656565" fill-rule="evenodd"/>
            <path id="Path_116318" data-name="Path 116318" d="M108.05,979.131c.028-5.806,39.817-10.316,88.873-10.076S285.726,974.2,285.7,980s-39.817,10.316-88.88,10.076-88.8-5.143-88.769-10.948H107.7c-.029,5.828,39.873,10.75,89.123,10.991s89.2-4.288,89.233-10.116-39.875-10.75-89.13-10.992-89.2,4.287-89.226,10.116Z" transform="translate(-72.854 -897.19)" fill="#656565" fill-rule="evenodd"/>
            <path id="Path_116319" data-name="Path 116319" d="M107.8,979.142c.028-5.829,39.977-10.358,89.226-10.116s89.158,5.164,89.13,10.992-39.978,10.358-89.233,10.116-89.152-5.164-89.123-10.991h-.354c-.028,5.85,40.033,10.791,89.477,11.035s89.556-4.305,89.586-10.155-40.033-10.793-89.482-11.036-89.551,4.3-89.58,10.157Z" transform="translate(-72.954 -897.202)" fill="#656565" fill-rule="evenodd"/>
            <path id="Path_116320" data-name="Path 116320" d="M107.545,979.152c.029-5.853,40.137-10.4,89.58-10.157s89.512,5.183,89.482,11.036-40.136,10.4-89.586,10.155-89.5-5.185-89.477-11.035h-.358c-.029,5.874,40.192,10.833,89.835,11.077s89.91-4.321,89.939-10.195-40.192-10.836-89.835-11.079-89.911,4.321-89.939,10.2Z" transform="translate(-73.056 -897.214)" fill="#656565" fill-rule="evenodd"/>
            <path id="Path_116321" data-name="Path 116321" d="M107.288,979.163c.028-5.877,40.3-10.441,89.939-10.2s89.863,5.2,89.835,11.08-40.3,10.439-89.939,10.194-89.864-5.2-89.835-11.077l-.354,0c-.029,5.9,40.351,10.878,90.188,11.123s90.269-4.339,90.3-10.236-40.351-10.878-90.194-11.123-90.264,4.339-90.293,10.236Z" transform="translate(-73.157 -897.226)" fill="#656565" fill-rule="evenodd"/>
            <path id="Path_116322" data-name="Path 116322" d="M107.034,979.172c.029-5.9,40.456-10.481,90.293-10.236s90.222,5.225,90.194,11.123-40.458,10.481-90.3,10.236-90.218-5.225-90.188-11.123h-.352c-.029,5.921,40.509,10.92,90.539,11.165s90.623-4.354,90.653-10.276-40.511-10.92-90.546-11.166-90.616,4.356-90.646,10.277Z" transform="translate(-73.257 -897.237)" fill="#656565" fill-rule="evenodd"/>
            <path id="Path_116323" data-name="Path 116323" d="M106.8,979.24c-.029,5.921,40.509,10.92,90.539,11.165s90.623-4.354,90.653-10.276-40.511-10.92-90.546-11.166-90.616,4.355-90.646,10.277Zm90.539,11.408c-50.252-.246-90.974-5.357-90.945-11.41s40.8-10.766,91.052-10.52,90.978,5.357,90.949,11.414S247.6,990.9,197.337,990.648Z" transform="translate(-73.373 -897.307)" fill="#656565" fill-rule="evenodd"/>
        </g>
    </g>

</svg>