<svg xmlns="http://www.w3.org/2000/svg" width="39.08" height="39.148" xmlns:v="https://vecta.io/nano"><path d="M34.512 18.316v16.642l-5.23-.968-2.306-2.766-9.715-10.8 8.248-5.861c4.132 5.454 4.262 4.124 4.262 4.124s2.041-3.047 4.659-.429z" fill="#ccc"/><path d="M14.548 17.054l17.151 22.074c-.1.01-.2.015-.3.015H3.356z" fill="#518ef8"/><path d="M25.509 14.562L0 36.032V7.752c0-1.721 1.395-3.116 3.116-3.116h18.6c-.8 1.373 2.163 2.254 2.163 3.957a14.86 14.86 0 0 0 1.63 5.969z" fill="#28b446"/><path d="M34.512 34.958v1.07c-.001 1.603-1.218 2.944-2.813 3.1L17.347 24.965l3.474-3.521 8.018 7.912.443.437z" fill="#f2f2f2"/><path d="M24.626 17.593l-3.805 3.856-3.474 3.521L3.353 39.148h-.24a3.12 3.12 0 0 1-3.116-3.116l21.738-22.025c.407.7 3.206-.009 3.775.556l1.043 1.343c.512.544-2.366 1.111-1.927 1.687z" fill="#ffd837"/><path d="M8.14 17.416c-2.247 0-4.214-1.509-4.796-3.679s.367-4.461 2.313-5.585 4.404-.8 5.993.789l-1.151 1.148c-1.072-1.07-2.73-1.284-4.038-.521s-1.938 2.312-1.535 3.771 1.741 2.464 3.255 2.446 2.827-1.054 3.196-2.523H8.14v-1.628h4.97v.814a4.97 4.97 0 0 1-4.97 4.969z" fill="#fff"/><path d="M21.719 4.636a9.31 9.31 0 0 1 16.812 1.505 9.31 9.31 0 0 1-2.193 9.765 21.28 21.28 0 0 0-1.907 2.352 30.21 30.21 0 0 0-4.659 11.369 29.92 29.92 0 0 0-5.145-12.034c-.444-.587-.919-1.15-1.422-1.687h0c-2.997-2.983-3.608-7.611-1.487-11.27z" fill="#f14336"/><path d="M29.772 4.354c2.736.001 4.953 2.219 4.953 4.954s-2.218 4.953-4.954 4.954-4.954-2.217-4.954-4.953c0-1.314.522-2.575 1.451-3.504s2.19-1.451 3.504-1.451z" fill="#7e2d25"/></svg>