<svg id="goole_play_logo" xmlns="http://www.w3.org/2000/svg" width="182.25" height="54" viewBox="0 0 182.25 54">
  <path id="Path_212471" data-name="Path 212471" d="M446.5,564H277.75a6.751,6.751,0,0,0-6.75,6.75v40.5a6.751,6.751,0,0,0,6.75,6.75H446.5a6.751,6.751,0,0,0,6.75-6.75v-40.5A6.751,6.751,0,0,0,446.5,564Z" transform="translate(-271 -564)" fill="#191919"/>
  <path id="Path_212472" data-name="Path 212472" d="M320.546,575.425a3.664,3.664,0,0,1-1.012,2.7,3.934,3.934,0,0,1-2.97,1.2,4.253,4.253,0,0,1-2.983-7.25,4.054,4.054,0,0,1,2.983-1.215,4.2,4.2,0,0,1,1.661.337,3.341,3.341,0,0,1,1.269.9l-.716.715a2.7,2.7,0,0,0-2.214-.958,3.132,3.132,0,0,0-3.146,3.24,3.186,3.186,0,0,0,5.4,2.335,2.551,2.551,0,0,0,.675-1.647h-2.93v-.972h3.928A3.384,3.384,0,0,1,320.546,575.425Zm6.183-3.375h-3.645v2.565h3.321v.972h-3.321v2.565h3.645v1H322v-8.1h4.725Zm4.428,7.1h-1.04v-7.1H327.85v-1h5.63v1h-2.322Zm6.291,0v-8.1h1.039v8.1Zm5.657,0h-1.04v-7.1H339.8v-1h5.562v1H343.1Zm12.8-1.053a4.211,4.211,0,0,1-5.94,0,4.373,4.373,0,0,1,0-6.007,4.184,4.184,0,0,1,5.94,0,4.359,4.359,0,0,1,0,6.007Zm-5.171-.675a3.119,3.119,0,0,0,4.4,0,3.455,3.455,0,0,0,0-4.644,3.119,3.119,0,0,0-4.4,0,3.455,3.455,0,0,0,0,4.644Zm7.83,1.728v-8.1h1.269l3.942,6.3v-6.3h1.04v8.1h-1.08l-4.118-6.6v6.6Z" transform="translate(-256.53 -561.601)" fill="#fff" stroke="#fff" stroke-width="0.2"/>
  <path id="Path_212473" data-name="Path 212473" d="M348.684,587.414a5.737,5.737,0,1,0,5.764,5.738,5.656,5.656,0,0,0-5.764-5.738Zm0,9.221a3.483,3.483,0,1,1,3.24-3.483,3.319,3.319,0,0,1-.886,2.425,3.329,3.329,0,0,1-2.354,1.058Zm-12.569-9.221a5.737,5.737,0,1,0,5.751,5.738,5.656,5.656,0,0,0-5.764-5.738Zm0,9.221a3.482,3.482,0,1,1,3.227-3.483,3.318,3.318,0,0,1-.886,2.425,3.329,3.329,0,0,1-2.354,1.058Zm-14.972-7.452v2.43h5.832a5.089,5.089,0,0,1-1.35,3.065,5.972,5.972,0,0,1-4.5,1.782,6.48,6.48,0,0,1,0-12.96,6.209,6.209,0,0,1,4.414,1.742l1.714-1.715A8.493,8.493,0,0,0,321.143,581a8.924,8.924,0,1,0,0,17.834,7.881,7.881,0,0,0,8.33-8.195,7.923,7.923,0,0,0-.135-1.525Zm61.169,1.89A5.307,5.307,0,0,0,372,593.152a5.614,5.614,0,0,0,5.7,5.737,5.708,5.708,0,0,0,4.779-2.538L380.517,595a3.28,3.28,0,0,1-2.822,1.593,2.916,2.916,0,0,1-2.781-1.741l7.681-3.172Zm-7.83,1.917a3.144,3.144,0,0,1,3-3.348,2.229,2.229,0,0,1,2.133,1.215Zm-6.237,5.562h2.524V581.677h-2.524Zm-4.131-9.855h-.095a4.054,4.054,0,0,0-3.024-1.35,5.751,5.751,0,0,0,0,11.489,3.91,3.91,0,0,0,3.024-1.35h.081v.823c0,2.2-1.174,3.375-3.064,3.375a3.171,3.171,0,0,1-2.889-2.039l-2.2.918a5.468,5.468,0,0,0,5.09,3.389c2.957,0,5.4-1.741,5.4-5.981V587.752h-2.322Zm-2.889,7.938a3.5,3.5,0,0,1,0-6.966,3.52,3.52,0,0,1,1.239,6.658,3.2,3.2,0,0,1-1.253.308Zm32.913-14.958H388.1v16.875h2.525v-6.4h3.523a5.252,5.252,0,1,0,0-10.476Zm0,8.1h-3.524v-5.751h3.577a2.9,2.9,0,1,1,0,5.792Zm15.565-2.43a4.728,4.728,0,0,0-4.5,2.578l2.241.932a2.385,2.385,0,0,1,2.295-1.242,2.436,2.436,0,0,1,.956.078,2.465,2.465,0,0,1,.85.443,2.428,2.428,0,0,1,.894,1.652v.175a5.574,5.574,0,0,0-2.633-.648c-2.417,0-4.86,1.35-4.86,3.793a3.9,3.9,0,0,0,4.185,3.713,3.549,3.549,0,0,0,3.24-1.62h.081v1.35h2.43v-6.494c0-2.957-2.241-4.671-5.116-4.671Zm-.31,9.247c-.823,0-1.971-.418-1.971-1.431,0-1.35,1.431-1.8,2.7-1.8a4.472,4.472,0,0,1,2.295.567,3.052,3.052,0,0,1-2.956,2.7Zm14.35-8.842-2.889,7.317h-.081l-3-7.317h-2.7l4.5,10.233-2.565,5.683h2.632l6.912-15.916Zm-22.693,10.8h2.525V581.677H401.05Z" transform="translate(-256.695 -558.052)" fill="#fff"/>
  <path id="Path_212474" data-name="Path 212474" d="M281.6,571.565a2.7,2.7,0,0,0-.621,1.89v29.862a2.7,2.7,0,0,0,.621,1.89l.095.095,16.727-16.713V588.2L281.7,571.47Z" transform="translate(-267.509 -561.386)" fill="#00ceff"/>
  <path id="Path_212475" data-name="Path 212475" d="M299.435,591.276,293.9,585.7v-.392l5.535-5.589.121.068,6.628,3.766c1.89,1.067,1.89,2.822,0,3.9l-6.6,3.753Z" transform="translate(-262.984 -558.498)" fill="#ffcd00"/>
  <path id="Path_212476" data-name="Path 212476" d="M303.958,589.7l-5.7-5.7L281.44,600.821a2.2,2.2,0,0,0,2.808.081L303.971,589.7" transform="translate(-267.346 -557)" fill="#f53349"/>
  <path id="Path_212477" data-name="Path 212477" d="M303.961,582.806l-19.724-11.2a2.2,2.2,0,0,0-2.808.081L298.264,588.5Z" transform="translate(-267.349 -561.503)" fill="#01f076"/>
  <path id="Path_212478" data-name="Path 212478" d="M303.8,588.13l-19.562,11.137a2.252,2.252,0,0,1-2.7,0l-.094.095.094.094a2.241,2.241,0,0,0,2.7,0l19.723-11.2Z" transform="translate(-267.346 -555.555)" fill="#2f313f" opacity="0.2"/>
  <path id="Path_212479" data-name="Path 212479" d="M281.6,600.632a2.7,2.7,0,0,1-.621-1.89v.2a2.7,2.7,0,0,0,.621,1.89l.095-.094Zm29.106-14.877-6.75,3.821.122.121,6.629-3.753a2.366,2.366,0,0,0,1.35-1.944,2.512,2.512,0,0,1-1.35,1.755Z" transform="translate(-267.509 -557)" fill="#2f313f" opacity="0.12"/>
  <path id="Path_212480" data-name="Path 212480" d="M284.4,571.786l26.312,14.958a2.512,2.512,0,0,1,1.35,1.755,2.366,2.366,0,0,0-1.35-1.944L284.4,571.6c-1.89-1.066-3.429-.176-3.429,1.984v.2C281.01,571.61,282.522,570.719,284.4,571.786Z" transform="translate(-267.511 -561.499)" fill="#fff" opacity="0.25"/>
</svg>
