<svg xmlns="http://www.w3.org/2000/svg" width="89" height="32" viewBox="0 0 89 32">
    <g id="mapbox_logo" transform="translate(0.06 -0.001)">
        <rect id="Rectangle_39875" data-name="Rectangle 39875" width="89" height="32" transform="translate(-0.06 0.001)" fill="#9a3c3c" opacity="0"/>
        <path id="Path_11091" data-name="Path 11091" d="M12966.007,8329.309a4.119,4.119,0,0,0-2.9,1.229l0-4.149a.252.252,0,0,0-.247-.245h-1.474a.253.253,0,0,0-.249.245v11.241a.252.252,0,0,0,.249.247h1.474a.252.252,0,0,0,.247-.247h0v-.774a4.018,4.018,0,0,0,2.905,1.241,4.4,4.4,0,0,0,0-8.787Zm-55.194-5.309a9.7,9.7,0,1,0,9.8,9.687A9.732,9.732,0,0,0,12910.813,8324Zm4.643,12.078c-3.354,3.306-9.331,2.25-9.331,2.25s-1.07-5.9,2.283-9.22a4.908,4.908,0,0,1,6.894.153A4.774,4.774,0,0,1,12915.455,8336.078Zm-3.523-6.411-.962,1.955-1.973.948,1.973.945.962,1.942.963-1.942,1.97-.945-1.97-.933Zm53.746,6.659a2.581,2.581,0,0,1-2.547-2.608v-.076a2.541,2.541,0,1,1,2.547,2.685Zm9.934-7.018a4.524,4.524,0,1,1-.007,0Zm-.016,7.018a2.575,2.575,0,1,1,1.825-.787A2.588,2.588,0,0,1,12975.6,8336.326Zm-27.569-6.8h-1.476a.255.255,0,0,0-.249.249h0v.762a4.041,4.041,0,0,0-2.9-1.229,4.392,4.392,0,0,0,0,8.771,4.046,4.046,0,0,0,2.9-1.239v.774a.263.263,0,0,0,.247.247h1.476a.255.255,0,0,0,.248-.249v-7.855a.224.224,0,0,0-.073-.175.215.215,0,0,0-.179-.057Zm-4.255,6.8a2.633,2.633,0,1,1,2.53-2.671l0,.078A2.588,2.588,0,0,1,12943.771,8336.326Zm11.643-7.018a4.123,4.123,0,0,0-2.9,1.229v-.764a.25.25,0,0,0-.072-.177.239.239,0,0,0-.175-.07h-1.475a.254.254,0,0,0-.249.247h0V8341a.254.254,0,0,0,.249.232h1.475a.243.243,0,0,0,.247-.232h0v-4.16a4.021,4.021,0,0,0,2.9,1.237,4.39,4.39,0,0,0-.007-8.77Zm-.341,7.018a2.585,2.585,0,0,1-2.548-2.608v-.076a2.55,2.55,0,1,1,2.548,2.685Zm-20.229-7.018a2.892,2.892,0,0,0-2.593,1.644,3.119,3.119,0,0,0-2.762-1.644,2.812,2.812,0,0,0-2.284,1.163v-.7a.251.251,0,0,0-.247-.247h-1.49a.243.243,0,0,0-.234.247h0v7.857a.251.251,0,0,0,.232.247h1.49a.263.263,0,0,0,.247-.247h0v-4.7a1.853,1.853,0,0,1,1.693-1.895,1.729,1.729,0,0,1,1.707,1.783v4.814a.265.265,0,0,0,.249.247h1.506a.268.268,0,0,0,.249-.247h0l-.017-4.89a1.814,1.814,0,0,1,1.661-1.708,1.73,1.73,0,0,1,1.708,1.783v4.814a.267.267,0,0,0,.248.247h1.506a.266.266,0,0,0,.248-.247h0l-.015-5.4a3.027,3.027,0,0,0-3.113-2.921Zm53.22,8.213-2.548-3.851,2.531-3.817a.208.208,0,0,0,.033-.159.22.22,0,0,0-.1-.14.176.176,0,0,0-.124-.028h-1.708a.421.421,0,0,0-.326.174l-1.491,2.467-1.49-2.467a.4.4,0,0,0-.325-.174h-1.708a.21.21,0,0,0-.217.218.19.19,0,0,0,.031.109l2.529,3.817-2.545,3.851a.217.217,0,0,0-.034.169.229.229,0,0,0,.1.144.167.167,0,0,0,.124.028h1.707a.4.4,0,0,0,.328-.185l1.521-2.5,1.52,2.5a.366.366,0,0,0,.328.185h1.675a.22.22,0,0,0,.218-.214.21.21,0,0,0-.033-.127Z" transform="translate(-12899.999 -8317.741)" fill="#4061f3" fill-rule="evenodd"/>
    </g>
</svg>
