<svg xmlns="http://www.w3.org/2000/svg" width="83.893" height="32" viewBox="0 0 83.893 32">
    <g id="tomtom_logo" transform="translate(0.5 -0.001)">
        <rect id="Rectangle_39876" data-name="Rectangle 39876" width="83" height="32" transform="translate(0.393 0.001)" fill="#9a3c3c" opacity="0"/>
        <path id="Path_178196" data-name="Path 178196" d="M14719.562-17798.338v-5.949a2.031,2.031,0,0,0-2.029-2.029,2.031,2.031,0,0,0-2.029,2.029v5.949c0,.4-.71.6-1.417.6s-1.421-.2-1.421-.6v-5.949a2.031,2.031,0,0,0-2.029-2.029,2.034,2.034,0,0,0-2.029,2.029v5.949c0,.4-.706.6-1.417.6s-1.416-.2-1.416-.6v-5.977a4.866,4.866,0,0,1,4.862-4.867,4.853,4.853,0,0,1,3.45,1.436,4.854,4.854,0,0,1,3.446-1.436,4.87,4.87,0,0,1,4.867,4.867v5.977c0,.4-.71.6-1.421.6S14719.562-17797.936,14719.562-17798.338Zm-26.92-5.1v-.027a5.71,5.71,0,0,1,5.708-5.713,5.71,5.71,0,0,1,5.707,5.713v.027a5.706,5.706,0,0,1-5.707,5.7A5.706,5.706,0,0,1,14692.642-17803.441Zm5.708,2.838a2.869,2.869,0,0,0,2.869-2.852,2.875,2.875,0,0,0-2.869-2.861,2.875,2.875,0,0,0-2.87,2.861A2.87,2.87,0,0,0,14698.35-17800.6Zm-12.757,2.266v-7.875h-3.253c-.4,0-.6-.711-.6-1.422v-.027c0-.705.2-1.416.6-1.416h9.346c.393,0,.594.711.594,1.416v.027c0,.711-.2,1.422-.594,1.422h-3.259v7.875c0,.4-.706.6-1.417.6S14685.593-17797.936,14685.593-17798.338Zm-7.379,0v-5.949a2.035,2.035,0,0,0-2.033-2.029,2.034,2.034,0,0,0-2.029,2.029v5.949c0,.4-.706.6-1.417.6s-1.417-.2-1.417-.6v-5.949a2.031,2.031,0,0,0-2.029-2.029,2.031,2.031,0,0,0-2.029,2.029v5.949c0,.4-.71.6-1.416.6s-1.417-.2-1.417-.6v-5.977a4.866,4.866,0,0,1,4.862-4.867,4.844,4.844,0,0,1,3.446,1.436,4.859,4.859,0,0,1,3.446-1.436,4.867,4.867,0,0,1,4.867,4.867v5.977c0,.4-.706.6-1.417.6S14678.214-17797.936,14678.214-17798.338Zm-26.92-5.1v-.027a5.71,5.71,0,0,1,5.708-5.713,5.707,5.707,0,0,1,5.7,5.713v.027a5.7,5.7,0,0,1-5.7,5.7A5.706,5.706,0,0,1,14651.294-17803.441Zm5.708,2.838a2.869,2.869,0,0,0,2.869-2.852,2.875,2.875,0,0,0-2.869-2.861,2.876,2.876,0,0,0-2.874,2.861A2.87,2.87,0,0,0,14657-17800.6Zm-12.761,2.266v-7.875h-3.254c-.4,0-.595-.711-.595-1.422,0,0,0-.008,0-.014s0-.008,0-.014c0-.705.2-1.416.595-1.416h9.346c.4,0,.6.711.6,1.416v.027c0,.711-.2,1.422-.6,1.422h-3.254v7.875c0,.4-.706.6-1.417.6S14644.241-17797.936,14644.241-17798.338Z" transform="translate(-14640.393 17819.445)" fill="#221e1f" stroke="rgba(0,0,0,0)" stroke-width="1"/>
    </g>
</svg>
