
<svg xmlns="http://www.w3.org/2000/svg" xmlns:xlink="http://www.w3.org/1999/xlink" width="60.862" height="32" viewBox="0 0 60.862 32">
    <defs>
        <radialGradient id="radial-gradient" cx="0.34" cy="0.41" r="1.003" gradientUnits="objectBoundingBox">
            <stop offset="0" stop-color="#cdeafb"/>
            <stop offset="1" stop-color="#2b75ba"/>
        </radialGradient>
        <radialGradient id="radial-gradient-2" cx="0.71" cy="0.601" r="2.272" gradientUnits="objectBoundingBox">
            <stop offset="0" stop-color="#b0cb1f"/>
            <stop offset="0.961" stop-color="#22993f"/>
            <stop offset="1" stop-color="#22993f"/>
        </radialGradient>
        <radialGradient id="radial-gradient-3" cx="0.921" cy="-0.559" r="4.019" xlink:href="#radial-gradient-2"/>
        <radialGradient id="radial-gradient-4" cx="-0.03" cy="0.03" r="2.591" xlink:href="#radial-gradient-2"/>
    </defs>
    <g id="esri_logo" transform="translate(0 -0.001)">
        <rect id="Rectangle_39873" data-name="Rectangle 39873" width="60" height="32" transform="translate(0.283 0.001)" fill="#9a3c3c" opacity="0"/>
        <g id="map_esri" transform="translate(0 4.656)">
            <g id="_1991642795680" transform="translate(0)">
                <path id="Path_11092" data-name="Path 11092" d="M4744.019,8385.894a2.74,2.74,0,0,1,3.024,2.824h-6.074A2.931,2.931,0,0,1,4744.019,8385.894Zm28.4-7.894h-.026a1.894,1.894,0,0,0,.014,3.787,1.9,1.9,0,1,0,.013-3.787Zm-1.471,5.982v11.839h2.957v-11.839Zm-2.556-.309a3.774,3.774,0,0,0-3.507,2.18h-.039v-1.871h-2.972v11.839h2.971v-6.342a2.972,2.972,0,0,1,3.184-2.984,5.668,5.668,0,0,1,1.3.188l.12-2.837a4.033,4.033,0,0,0-1.056-.175Zm-12.471,0c-2.395,0-4.764,1.188-4.764,3.824,0,4.523,6.4,2.6,6.4,5.045,0,.937-1.112,1.351-1.981,1.351a3.624,3.624,0,0,1-2.8-1.444l-1.913,1.915a5.8,5.8,0,0,0,4.548,1.752c2.409,0,5.1-.991,5.1-3.8,0-4.616-6.382-2.89-6.382-5,0-.9.937-1.271,1.726-1.271a2.724,2.724,0,0,1,2.315,1.205l1.872-1.889a5.188,5.188,0,0,0-4.12-1.686Zm-11.479,0a6.222,6.222,0,1,0,4.441,10.69l-1.86-1.874a3.769,3.769,0,0,1-2.876,1.257,3.056,3.056,0,0,1-3.185-2.809H4750v-.816c0-4.121-2.248-6.45-5.552-6.45Z" transform="translate(-4713.542 -8378)" fill="#030708"/>
                <path id="Path_11093" data-name="Path 11093" d="M3025,8575.179a9.171,9.171,0,1,0,9.179-9.179A9.172,9.172,0,0,0,3025,8575.179Z" transform="translate(-3023.463 -8563.483)" fill-rule="evenodd" fill="url(#radial-gradient)"/>
                <path id="Path_11094" data-name="Path 11094" d="M3031.284,8682.414c-.689.036-1.377.108-2.06.212a9.162,9.162,0,0,0-3.224,6.7,30.281,30.281,0,0,0,2.074,2.61,2.635,2.635,0,0,1,.348-.134,7.143,7.143,0,0,1-1.057-1.379c-.415-1.405.067-2.716,1.111-2.81.937-.107,1.739-1.484,2.395-2.4,1.352-1.872,3.438-1.564,3.332-2.5a.8.8,0,0,0-.856-.723C3032.716,8682,3031.9,8682.388,3031.284,8682.414Z" transform="translate(-3024.45 -8677.932)" fill-rule="evenodd" fill="url(#radial-gradient-2)"/>
                <path id="Path_11095" data-name="Path 11095" d="M3133.868,9390.229c-.134.04-.268.081-.4.108-.106.038-.2.08-.347.134a.975.975,0,0,0-.643.868,1.877,1.877,0,0,0,1.459,1.793c.91.27.99-.041,1.458.6a6.335,6.335,0,0,1,.562,1.833,6.577,6.577,0,0,0,.388.908,9.437,9.437,0,0,0,2.047.669,28.059,28.059,0,0,1,.335-3.09c.482-1.27.763-1.82.107-3.132-1.445-.4-1.886-.534-3.332-.828a2.912,2.912,0,0,0-.642-.095A3.7,3.7,0,0,0,3133.868,9390.229Z" transform="translate(-3129.494 -9376.461)" fill-rule="evenodd" fill="url(#radial-gradient-3)"/>
                <path id="Path_11096" data-name="Path 11096" d="M3697.784,8740.616c-.415.614-1.913.772-2.4,1.457-.361.536.014,1.58-.308,2.194a1.862,1.862,0,0,0,.107,1.34c.575.843,1.525.373,2.248.68.87.361.977,1.379,1.7,2.116s-.937,1.9.414,4.6a1.837,1.837,0,0,0,.5.642,8.853,8.853,0,0,0,2.382-2.125c.213-1.365-.254-1.809.321-3.064a20.464,20.464,0,0,1,1.619-3.013,9.139,9.139,0,0,0-3-6.383,1.548,1.548,0,0,1-.669,0,3.2,3.2,0,0,0-.669-.064c-1.351,0-1.753.936-2.248,1.619Z" transform="translate(-3684.501 -8734.168)" fill-rule="evenodd" fill="url(#radial-gradient-4)"/>
                <g id="Group_41357" data-name="Group 41357" transform="translate(0 0.728)">
                    <path id="Path_11097" data-name="Path 11097" d="M2917.945,8441.3a17.262,17.262,0,0,1,5.526-1.391,12.278,12.278,0,0,0-1.967-3.278,15.1,15.1,0,0,0-4.549,1.137A27.787,27.787,0,0,0,2917.945,8441.3Zm7.278,3.841a12.092,12.092,0,0,0-5.339,1.123,32.425,32.425,0,0,0,2.034,3.371,12,12,0,0,1,2.033-.548,14.068,14.068,0,0,1,1.9-.159,19.268,19.268,0,0,0-.628-3.788Zm-5.726.348a12.5,12.5,0,0,1,5.526-1.112,34.86,34.86,0,0,0-1.258-3.731,14.324,14.324,0,0,0-5.579,1.39,30.867,30.867,0,0,0,1.312,3.454Zm6.636-8.711a17.312,17.312,0,0,0-3.747-.241,14.573,14.573,0,0,1,1.887,3.359,15.654,15.654,0,0,1,4.228.789,12.459,12.459,0,0,0-2.367-3.907Zm3.291,8.523a13.706,13.706,0,0,0-.7-3.895,12.337,12.337,0,0,0-4.174-.774,26.381,26.381,0,0,1,1.19,3.786,14.8,14.8,0,0,1,3.679.883Zm-.963-8.335c-1.511-1.848-4.937-3.414-8.737-3.185a11.629,11.629,0,0,1,2.181,2.1,15.555,15.555,0,0,1,3.693.281,2.166,2.166,0,0,1-.321-.388c-.107-.228.147-.28.348-.147a4.169,4.169,0,0,1,.8.6,13.437,13.437,0,0,1,2.034.735Zm1.82,8.9a.492.492,0,0,1-.428.266,18.12,18.12,0,0,1-.12,2.075,13.144,13.144,0,0,0,.642-1.7l.148-.574a9.216,9.216,0,0,0,.187-4.391,7.063,7.063,0,0,0-1.686-3.744,15.466,15.466,0,0,0-1.994-.83,12.5,12.5,0,0,1,2.114,3.921,7.555,7.555,0,0,1,1.151.683c.066.079.066.228-.148.228a6.076,6.076,0,0,1-.789-.241,16.293,16.293,0,0,1,.5,3.933s.469.228.428.374Zm-1.391,3.64a3.319,3.319,0,0,0,.482-.685,21.37,21.37,0,0,0,.053-2.862,13.39,13.39,0,0,0-3.465-.764,21.242,21.242,0,0,1,.548,3.76,12.277,12.277,0,0,1,2.382.549Zm-2.435,2.152a8.489,8.489,0,0,0,2.168-1.819,8.368,8.368,0,0,0-2.1-.24s-.013,1.285-.066,2.059Zm-2.248,1.06a12.558,12.558,0,0,0,1.673-.751c.053-.843.04-1.806.014-2.381a10.679,10.679,0,0,0-3.546.693A17.033,17.033,0,0,0,2924.207,8452.72Zm-4.95-.725a15.084,15.084,0,0,0,1.525,1.123,13.241,13.241,0,0,0,2.569-.187c-.4-.467-1.418-1.885-1.726-2.368a10.354,10.354,0,0,0-2.369,1.431Zm-3.345-3.387a22.036,22.036,0,0,0,2.836,2.945,13.994,13.994,0,0,1,2.462-1.6,33.6,33.6,0,0,1-2.006-3.373,12.326,12.326,0,0,0-3.292,2.032Zm-2.061-4a13.71,13.71,0,0,0,1.592,3.373,18.732,18.732,0,0,1,3.372-2.183c-.375-.814-.91-2.327-1.3-3.466a21.623,21.623,0,0,0-3.667,2.275Zm-1.177-4.229a18.463,18.463,0,0,0,.856,3.438,27.232,27.232,0,0,1,3.786-2.26,28.041,28.041,0,0,1-.843-3.586A14.8,14.8,0,0,0,2912.673,8440.381Zm-.187-2.9a10.29,10.29,0,0,0,.107,2.073,16.537,16.537,0,0,1,3.786-2.314,27.4,27.4,0,0,1-.308-3.09,12.245,12.245,0,0,0-3.612,3.464Zm4.041-4.135a10.285,10.285,0,0,1,5.539-.868c.228.026.2.211-.026.227h-.281a12.9,12.9,0,0,0-5.232,1.244,18.443,18.443,0,0,0,.294,3.145,17.051,17.051,0,0,1,4.161-1.1,16.612,16.612,0,0,0-1.886-1.634.469.469,0,0,1-.174-.414.363.363,0,0,1,.482-.362,8.034,8.034,0,0,1,2.02-.2,9.929,9.929,0,0,1,8.858,4.563c3.452,5.473,0,13.019-4.536,15.025a9.884,9.884,0,0,1-4.335.979h-.04a16.272,16.272,0,0,1-2.275-.175,10.024,10.024,0,0,1-7.519-5.086c-2.409-3.879-1.057-8.4-.723-9.352A11.017,11.017,0,0,1,2916.527,8433.344Zm-4.616,6.729c-.04-.589-.08-1.391-.08-1.391a7.092,7.092,0,0,0-.816,2.609A8.853,8.853,0,0,1,2911.91,8440.073Zm6.315,11.921a19.521,19.521,0,0,1-2.93-2.928c-.241.146-.508.533-.87.6a1.565,1.565,0,0,1-.548.025c-.093-.039.027-.227.12-.361a4.494,4.494,0,0,1,.8-.815,15.08,15.08,0,0,1-1.713-3.412,9.955,9.955,0,0,0-.8.59.429.429,0,0,1-.468,0,.469.469,0,0,1,.08-.764c.134-.095.763-.536.91-.656a19.679,19.679,0,0,1-.8-3.372,6.52,6.52,0,0,1-.722.55.492.492,0,0,1-.3-.014,13.425,13.425,0,0,0,.5,4.924,9.652,9.652,0,0,0,6.181,6.288,5.824,5.824,0,0,1,.561-.655Zm1.606,1.1c-.294-.174-.682-.455-1.044-.681a4,4,0,0,0-.375.467,6.714,6.714,0,0,0,1.419.214Z" transform="translate(-2910.174 -8432.387)" fill="#030708" fill-rule="evenodd"/>
                </g>
            </g>
        </g>
    </g>
</svg>
