<svg xmlns="http://www.w3.org/2000/svg" width="35.515" height="32.155" viewBox="0 0 35.515 32.155">
    <g id="here_logo" transform="translate(0.329)">
        <rect id="Rectangle_39874" data-name="Rectangle 39874" width="35" height="32" transform="translate(-0.329 0.155)" fill="#9a3c3c" opacity="0"/>
        <g id="Group_41358" data-name="Group 41358" transform="translate(0.698 0)">
            <path id="Path_11098" data-name="Path 11098" d="M8937.468,9732l-4.729,4.725L8928,9732Z" transform="translate(-8928 -9705.345)" fill="#65c1c2" fill-rule="evenodd"/>
            <path id="Path_11099" data-name="Path 11099" d="M9036.1,7841.824c-1-1.161-.952-1.8-.351-2.4.741-.727,1.511-.433,2.377.392Zm10.152-12.907c.742-.741,1.511-.434,2.377.377l-2.027,2.028C9045.568,7830.162,9045.609,7829.561,9046.253,7828.917Zm6.124,2.07c-.907,1.37-2.545,3.607-4.224,1.931l4.268-4.267c-.393-.377-.657-.727-.909-.936-2.282-2.293-4.868-2.336-6.9-.308a4.388,4.388,0,0,0-1.328,4.349l-1.329-1.51a2.773,2.773,0,0,0-.784,3.79l-1.5-1.244-2.027,2.027,2.753,2.742a4.325,4.325,0,0,0-6.2.308,4.457,4.457,0,0,0-.349,6.238l-.307-.295a3.448,3.448,0,0,0-5.077-.223,3.13,3.13,0,0,0-1.077,2.671l-4.166-4.168-2.24,2.238,8.267,8.265h4.433l-2.977-2.979c-1.54-1.594-1.6-2.405-.811-3.174.726-.741,1.592-.266,3.09,1.2l2.936,2.922,2.2-2.2-2.8-2.8a4.678,4.678,0,0,0,6.587-.558l.04-.042a6.259,6.259,0,0,0,1.722-2.4l-1.679-1.12c-.908,1.371-2.5,3.608-4.183,1.931l4.265-4.266,2.672,2.671,2.321-2.322-3.314-3.314a2.3,2.3,0,0,1,0-3.58,6.1,6.1,0,0,0,1.287,1.818c2.153,2.153,4.907,2.573,7.371.167l.042-.042a6.244,6.244,0,0,0,1.72-2.406Z" transform="translate(-9019.694 -7825.938)" fill="#393e47" fill-rule="evenodd"/>
        </g>
    </g>
</svg>
