<svg xmlns="http://www.w3.org/2000/svg" width="945.769" height="519.107" viewBox="0 0 945.769 519.107">
    <g id="map" transform="translate(69 25.749)">
        <g id="_2791348908880" data-name=" 2791348908880" transform="translate(0 0)">
            <g id="Group_98351" data-name="Group 98351" transform="translate(0 0)">
                <g id="Group_98321" data-name="Group 98321">
<!--                    <path id="Path_152359" data-name="Path 152359" d="M256.53,1102.006,495,1214.233c10.151,4.777,26.368,8.2,37.273,3.583l516.194-242.87c5.751-2.64,21.811-11.5-2.923-22.345L810.091,841.788a35.768,35.768,0,0,0-28.756.251L257.347,1088.618C251.219,1091.352,247.542,1098.015,256.53,1102.006Z" transform="translate(-251.149 -795.644)" fill="#e3e3e3"/>-->
                    <g id="Group_98302" data-name="Group 98302" transform="translate(9.277 1.511)">
                        <path id="Path_152364" data-name="Path 152364" d="M320.822,872.261l244.9,115.23c10.429,4.892,27.109,8.425,38.319,3.7l499.035-234.842c5.911-2.684,22.387-11.788-2.99-22.93l-241.806-113.8a36.683,36.683,0,0,0-29.555.272L321.671,858.5C315.386,861.323,311.616,868.117,320.822,872.261Z" transform="translate(-315.312 -616.645)" fill="#b2b2b2"/>
                    </g>
                    <g id="Group_98320" data-name="Group 98320" transform="translate(9.277 1.511)">
                        <path id="Path_152372" data-name="Path 152372" d="M320.822,872.261l244.9,115.23c10.429,4.892,27.109,8.425,38.319,3.7l499.035-234.842c5.911-2.684,22.387-11.822-2.99-22.93l-241.806-113.8a36.683,36.683,0,0,0-29.555.272L321.671,858.5C315.386,861.323,311.616,868.117,320.822,872.261Z" transform="translate(-315.312 -616.645)" fill="#e8e3dd"/>
                        <path id="Path_152373" data-name="Path 152373" d="M1186.1,719.064c-19.024,1.087-41.852,2.514-57.411,3.975-31.321,2.888-52.689,5.979-85.369,16.884-32.714,10.9-80.613,24.833-99.943,31.763-19.363,6.93-44.094,16.952-77.59,20.179-9,.849-17.767,2.208-25.988,3.8L863.138,784.7c14.777-.747,34.651-3.7,69.3-16.68,59.857-22.387,111.731-39.169,154.806-46.914,22.217-4.009,56.29-7.032,84.01-9Z" transform="translate(-565.783 -679.673)" fill="#5fa6e6"/>
                        <g id="Group_98304" data-name="Group 98304" transform="translate(122.643 28.181)">
                            <path id="Path_152374" data-name="Path 152374" d="M458.557,978.043l21.028,16.374c-7.61,3.5-15.151,7-22.727,10.633l-.034-.034-31.151-11.041L393.4,976.888c.849-.476,1.461-.781,1.733-.951L443.27,956.2l66.889,24.459c-9.308,4.111-18.31,8.153-27.211,12.23l-20.519-16Z" transform="translate(139.163 -869.03)" fill="#b9d16f"/>
                            <path id="Path_152375" data-name="Path 152375" d="M1979.442,1513.417,1947,1488.448l8.187-4.348,51.67,10.225,6.93,8.051Z" transform="translate(-1892.24 -1217.597)" fill="#b9d16f"/>
                            <path id="Path_152376" data-name="Path 152376" d="M2059.3,1519.941l34.311-18.141,31.865,24.527-31.219,10.055Z" transform="translate(-2042.077 -1229.284)" fill="#b9d16f"/>
                            <path id="Path_152377" data-name="Path 152377" d="M883.7,707l2.174-.34-1.6-2.955,5.945,2.82C888.082,706.655,885.908,706.791,883.7,707Z" transform="translate(-407.461 -702.307)" fill="#b9d16f"/>
                            <path id="Path_152378" data-name="Path 152378" d="M1081.392,699.6l2.582,4.824c-25.852,1.97-55.271,4.756-75.212,8.357-27.822,4.994-59.314,13.758-94.236,25.376l-4.926-4.28c17.088-5.537,33.869-10.667,48.239-14.268C988.209,712.033,1047.013,703.982,1081.392,699.6Z" transform="translate(-610.01 -699.6)" fill="#b9d16f"/>
                            <path id="Path_152379" data-name="Path 152379" d="M1437.912,836.712a146.189,146.189,0,0,0,15.491-3.465c10.327-2.922,26.6-8.527,45.283-14.947,13.215-4.552,27.652-9.478,41.988-14.2l4.926,4.314q-27.058,9.121-56.8,20.281c-34.651,12.977-54.524,15.932-69.3,16.68Z" transform="translate(-1244.856 -768.6)" fill="#b9d16f"/>
                            <path id="Path_152380" data-name="Path 152380" d="M1366.626,949.5l4.79,10.123.136.2,22.183,21.741-11.346,10.055L1345.7,999.37l2.684-6.454,6.9-16.442Z" transform="translate(-1067.92 -864.606)" fill="#b9d16f"/>
                            <path id="Path_152381" data-name="Path 152381" d="M1567.086,952l-5.327,24.629-1.019,2.412-4.809,19.86-64.77,1.745c-5.028-2.514-10.157-5.028-15.762-7.677l-.442-.17c-.034,0-9.852-2.82-25.24.17-4.145-2.887-7.542-5.4-9.716-7.032,4.212-2.276,6.285-5.13,6.285-7.881a6.368,6.368,0,0,0-.2-1.563l119.544-24.119.849-.2Z" transform="translate(-1273.305 -866.257)" fill="#b9d16f"/>
                            <path id="Path_152382" data-name="Path 152382" d="M1965.674,1016.569c-5.028.951-14.064,2.65-25,4.688a28.5,28.5,0,0,1-5.571-6.047L1958.914,1004l7.576,5.3a6.719,6.719,0,0,0-1.7,4.246A6.428,6.428,0,0,0,1965.674,1016.569Z" transform="translate(-1840.899 -900.592)" fill="#b9d16f"/>
                            <path id="Path_152383" data-name="Path 152383" d="M1844.975,1066.166c-3.4-.272-21.13-1.97-34.175-9.682,10.769-2.038,19.364-3.635,23.882-4.484a22.034,22.034,0,0,0,2.378,1.257c4.79,2.14,11.075,3.125,17.359,2.955a50.342,50.342,0,0,0,11.041-1.461c2,1.495,4.858,3.567,8.289,6.013Z" transform="translate(-1705.932 -932.286)" fill="#b9d16f"/>
                            <path id="Path_152384" data-name="Path 152384" d="M2151.624,1441.2l49.971,13.555-32.816,17.325-18.48-20.315S2145.475,1446.975,2151.624,1441.2Z" transform="translate(-2148.5 -1189.271)" fill="#b9d16f"/>
                            <path id="Path_152385" data-name="Path 152385" d="M1837.625,1008.979a26.061,26.061,0,0,1,10.973,1.868c3.057,1.359,4.552,3.193,4.552,5.062s-1.529,3.771-4.552,5.266a27.135,27.135,0,0,1-10.973,2.378,26.054,26.054,0,0,1-10.973-1.9c-3.023-1.359-4.552-3.193-4.552-5.062s1.529-3.771,4.552-5.265A26.7,26.7,0,0,1,1837.625,1008.979Z" transform="translate(-1689.172 -903.872)" fill="#b9d16f"/>
                        </g>
                        <g id="Group_98308" data-name="Group 98308" transform="translate(0.957 5.386)">
                            <g id="Group_98305" data-name="Group 98305" transform="translate(0 13.962)">
                                <path id="Path_152386" data-name="Path 152386" d="M932.983,1196.869l-49.8-40.969-7.881,2.242,50.957,41.92Z" transform="translate(-325.682 -992.058)" fill="#fff"/>
                                <path id="Path_177453" data-name="Path 177453" d="M-8185.759-5378.245h0l-6.217-2.921,45.793-24.186.849-.375,161.974-52.111c12.167-4.76,53.473-16.062,83.5-25.033.916-.273,1.478-.441,1.492-.449l.374-.1c.226.256,197.478-42.531,4.008,3.737l-.051.015c-7.661,2.273-64.9,17.725-83.752,25.058l-162.177,52.181-45.793,24.186Zm510.6-186.605c.081-.043.119-.063.12-.065l.41-.168,88.8-36.417,6.252,2.919-89.107,36.587C-7669.071-5561.794-7676.761-5563.993-7675.159-5564.85Z" transform="translate(8324.667 5677.767)" fill="#fff" stroke="rgba(0,0,0,0)" stroke-width="1"/>
                                <path id="Path_152388" data-name="Path 152388" d="M1805.8,1686.06c15.321,2.14,30.642,4.246,45.861,6.353l7.372-3.465L1791.5,1679.3Z" transform="translate(-1562.976 -1337.653)" fill="#fff"/>
                                <path id="Path_152389" data-name="Path 152389" d="M2120.8,1334.139l179.4,48.647,4.79-3.7L2125.047,1330.3A11.712,11.712,0,0,0,2120.8,1334.139Z" transform="translate(-2120.8 -1107.212)" fill="#fff"/>
                                <path id="Path_152390" data-name="Path 152390" d="M1104.434,673.6,956.626,696.836,944.6,702.475a136.623,136.623,0,0,0,14.505-1.665L1111.432,676.9Z" transform="translate(-527.673 -673.6)" fill="#fff"/>
                                <path id="Path_152391" data-name="Path 152391" d="M348.2,747.9l4.043,29.691c.034.068,2.106,15.219,20.926,23.236L497.6,846.314l6.556-3.091L379.284,797.566c-16.068-6.93-18-20.247-18.073-20.484l-3.363-24.663Z" transform="translate(282.201 -722.66)" fill="#fff"/>
                                <path id="Path_152392" data-name="Path 152392" d="M1051.5,1048.244c.1.068,28.842,22.489,52.01,32.476,20.824,8.968,61.318,4.178,73.479,2.48l35.058,29.657.883.51,91.753,46.155,6.522-3.091-91.617-46.087-38.15-32.272-3.5.578c-.136.034-47.39,7.847-68.214-1.121-22.319-9.614-50.447-31.559-50.515-31.627Z" transform="translate(-773.549 -919.426)" fill="#fff"/>
                                <path id="Path_152393" data-name="Path 152393" d="M1714.445,1203.474c.068-.034,26.056-11.38,35.6-14.1,7.881-2.276,33.971-1.053,38.047-.849,3.975.679,22.081,2.921,43.857-7.44l106.329-51.16c.51-.238,21.707-10.531,57.547-5.741l2.888-4.077c-41.479-5.571-66.617,6.862-66.685,6.93L1825.7,1178.2c-20.009,9.546-34.277,6.353-34.345,6.353l-1.325-.17c-.1,0-33.02-1.8-44.4,1.461-10.429,2.989-37.062,14.608-37.13,14.641Z" transform="translate(-1674.461 -967.477)" fill="#fff"/>
                            </g>
                            <g id="Group_98306" data-name="Group 98306" transform="translate(2.344)">
                                <path id="Path_152394" data-name="Path 152394" d="M1622.3,988.221l-20.85,49.393-128.18,38.561c-.034,0-7.643,2.548-11.584-1.665l-32.924-38.068-4.314.747,33.026,38.2c6.047,6.556,18.276,2.514,18.276,2.514l129.674-39.037c14.675-34.888,6.616-15.456,21.257-50.344Z" transform="translate(-1229.264 -831.511)" fill="#fff"/>
                                <path id="Path_152399" data-name="Path 152399" d="M2031.835,1362.212l22.217-15.253c.475-.238,2.208-1.121,3.193-1.563,1.223-.544,2.786-1.223,4.688-1.936,1.495-.578,15.3-.883,17.439-1.6l45.365-22.991-2.242-1.766-43.73,22.1h-2.872c-2.072.713-12.261.318-13.959.963-2.038.781-6.454,3.193-7.711,3.771-5.809,2.616-3.465,1.7-3.465,1.7l-.238.136-22.319,15.321Z" transform="translate(-1907.093 -1089.288)" fill="#fff"/>
                                <path id="Path_152400" data-name="Path 152400" d="M1914.455,1437.068l-71.849-56.868-3.907,1.121,71.849,56.9Z" transform="translate(-1636.776 -1126.199)" fill="#fff"/>
                                <path id="Path_152401" data-name="Path 152401" d="M2081.447,1358.008l-27.465,9.109-27.822,7.711c-.034.034-8.391,2.752-13.928-.476l-10.565-6.217-3.567,1.359,10.565,6.217c7.677,4.484,18.82,1.189,19.907.849,18.548-5.13,38.336-11.045,55.389-16.854Z" transform="translate(-1851.243 -1113.455)" fill="#fff"/>
                                <path id="Path_152402" data-name="Path 152402" d="M2208.077,1300.414,2160.339,1265l-3.839,1.189,47.739,35.413Z" transform="translate(-2034.714 -1050.133)" fill="#fff"/>
                                <path id="Path_152403" data-name="Path 152403" d="M2245.671,1221.485l-.17-.2-14.472-12.807c-.645-.849-5.741-6.964-19.329-3.023l-97.429,24.731-10.871,5.13,110.474-28.026c9.716-2.854,12.875,1.97,12.875,1.97l.17.2,14.438,12.773Z" transform="translate(-2076.699 -1009.948)" fill="#fff"/>
                                <path id="Path_152404" data-name="Path 152404" d="M2265.374,1468.883l-20.79-22.863c0-.034-5.877-5.843,3.6-12.365l-3.669-1.155c-11.007,7.576-4.042,14.472-4.042,14.506L2261.2,1469.8Z" transform="translate(-2123.442 -1160.732)" fill="#fff"/>
                                <path id="Path_152405" data-name="Path 152405" d="M2311.127,1463.5l32.884-8.9-2.106-1.8-34,9.206Z" transform="translate(-2225.724 -1174.136)" fill="#fff"/>
                                <path id="Path_152406" data-name="Path 152406" d="M2499.293,1363.6c0,.034-1.631,6.455,4.586,12.773l7.983,9.206,8.323,3.941-12.162-14.064c-5.741-5.775-4.246-11.652-4.246-11.686Z" transform="translate(-2466.851 -1115.238)" fill="#fff"/>
                                <path id="Path_152408" data-name="Path 152408" d="M2570.63,1374.2l-19.33,4.11,3.363,1.563,17.631-3.771Z" transform="translate(-2536.693 -1122.237)" fill="#fff"/>
                                <path id="Path_152409" data-name="Path 152409" d="M2596.523,1356.6l18.242-5.2-2.208-1.8-19.058,5.435a16.541,16.541,0,0,0,2.208,1.189Z" transform="translate(-2593.5 -1105.994)" fill="#fff"/>
                                <path id="Path_152410" data-name="Path 152410" d="M1486.51,1045.6l-61.91,1.835,1.019,2.038,59.8-1.414Z" transform="translate(-1088.354 -890.145)" fill="#fff"/>
                                <path id="Path_152411" data-name="Path 152411" d="M1641.051,1070.838l-34.073,6.421-1.223.51-12.909,11.686-91.246,30.37,2.48,1.7,91.722-30.54.748-.408,12.739-11.584,33.631-6.353C1656.916,1069.173,1658.614,1066.524,1641.051,1070.838Z" transform="translate(-1349.206 -920.448)" fill="#fff"/>
                                <path id="Path_152412" data-name="Path 152412" d="M1638.589,1155.87l-22.6-2.038-2.684,1.8.985.238,23.18,2.106Z" transform="translate(-1260.559 -958.023)" fill="#fff"/>
                                <path id="Path_152413" data-name="Path 152413" d="M2089.731,1123.222l-37.4-24.221-3.329,1.563,37.029,23.984Z" transform="translate(-1883.493 -940.525)" fill="#fff"/>
                                <path id="Path_152414" data-name="Path 152414" d="M2109.8,1157.86a53.808,53.808,0,0,0,16.544-2l79.56-22.455-2.174-1.8-79.56,22.455a43.848,43.848,0,0,1-9.784,1.631Z" transform="translate(-2020.32 -962.051)" fill="#fff"/>
                                <path id="Path_152415" data-name="Path 152415" d="M1188.061,693.9c-34.651,4.416-93.319,12.467-123.825,20.077-27.788,6.964-64.375,19.5-94.609,29.895-18.548,6.387-34.719,11.924-44.944,14.845-1.562.442-3.159.849-4.756,1.257l-8.527,4.009a146.206,146.206,0,0,0,15.491-3.465c10.327-2.922,26.6-8.527,45.283-14.947,30.132-10.361,66.549-22.862,94.032-29.691,30.914-7.711,91.45-15.966,125.489-20.247Z" transform="translate(-599.002 -673.042)" fill="#fff"/>
                                <path id="Path_152416" data-name="Path 152416" d="M1140.733,632.5l-23.78,7.677-63.9,15.151-9.954,4.688,75.857-18,.272-.068,24.663-7.949Z" transform="translate(-595.939 -632.5)" fill="#fff"/>
                                <path id="Path_152417" data-name="Path 152417" d="M791.843,857.795c-12.4-8.731-78.643-66.583-103.646-88.495l-3.4,1.6c25.444,22.319,90.907,79.424,103.272,88.155C803.7,870.058,806.552,868.156,791.843,857.795Z" transform="translate(-281.36 -722.828)" fill="#fff"/>
                                <path id="Path_152418" data-name="Path 152418" d="M784.4,1100.837l-39.3-14.783c-.068,0-3.193,1.631-2.887,1.733,15.729,5.843,23.227,8.77,38.955,14.613Z" transform="translate(-85.177 -926.396)" fill="#fff"/>
                                <path id="Path_152419" data-name="Path 152419" d="M842.635,1189.414c-4.892-2.038-9.614-3.941-13.894-5.435-22.047-7.745-45.861-11.211-45.929-11.211l-.747-.068-22.93.442-.034,2.14,22.523-.442c2.956.442,24.357,3.839,44.3,10.871,4.144,1.461,8.731,3.261,13.452,5.266Z" transform="translate(-198.204 -989.189)" fill="#fff"/>
                                <path id="Path_152420" data-name="Path 152420" d="M931.1,1092.585l14.947,14.811,7.338,13.147,4.348-.646-7.372-13.249-.136-.17L935.177,1091.6Z" transform="translate(-371.733 -935.639)" fill="#fff"/>
                                <path id="Path_152421" data-name="Path 152421" d="M1183.668,740.5c-18.48.815-42.192,2.174-63.628,4.314a387.678,387.678,0,0,0-56.222,9.41c-17.121,4.179-34.107,9.614-55.169,16.612-40.7,13.521-94.066,31.389-96.478,32.2-1.155.34-28.434,8.221-46.676,9.206-9.75.51-22.285,2.378-36.043,5.266-2.752.577-5.571,1.189-8.391,1.868L810.7,824.239c7-1.8,13.86-3.431,20.417-4.79,13.351-2.786,25.376-4.62,34.685-5.1,19.669-1.019,48.579-9.478,48.646-9.512l.136-.034c.17-.068,54.354-18.242,96.58-32.239,20.824-6.93,37.674-12.3,54.591-16.442a379.9,379.9,0,0,1,55.033-9.206c22.727-2.276,48.2-3.635,67.025-4.416Z" transform="translate(-560.911 -703.811)" fill="#fff"/>
                                <path id="Path_152422" data-name="Path 152422" d="M756.674,892.238l-9.682-3.5L715.841,877.7l-34.99-18.514-.238-.136L625.75,838.53l-.408-.136-71.679-16.408-25.716-19.4,18.752-6.251c.883-.272,17.835-6.047-8.221-16.238l-2.956,1.665c22.149,8.663,8.8,12.841,8.765,12.841-7.474,2.378-14.981,5.028-22.387,7.474l28.264,21.334.849.374,72.019,16.476,54.558,20.417,34.99,18.514.272.136,31.321,11.109c3.091,1.121,6.183,2.242,9.24,3.363Z" transform="translate(-31.664 -729.959)" fill="#fff"/>
                                <path id="Path_152423" data-name="Path 152423" d="M1540.441,820.739l-9.58-5.639-3.261,1.529,9.308,5.469Z" transform="translate(-1157.078 -753.069)" fill="#fff"/>
                                <path id="Path_152424" data-name="Path 152424" d="M1681.821,877.636,1678.7,875.7l-3.3,1.563,2.786,1.7Z" transform="translate(-1348.666 -793.082)" fill="#fff"/>
                                <path id="Path_152425" data-name="Path 152425" d="M904.381,700.911l-1.6-2.955L896.5,695l3.533,6.556Z" transform="translate(-306.626 -673.768)" fill="#fff"/>
                                <path id="Path_152426" data-name="Path 152426" d="M1942.82,1056.3c-.1,0-33.869-1.97-45.385-19.3l-3.635,1.7c12.909,17.631,48.069,19.669,48.171,19.7Z" transform="translate(-1683.859 -899.587)" fill="#fff"/>
                                <path id="Path_152427" data-name="Path 152427" d="M850.082,788.8,763.9,796.953c-.1.034-39.1,4.45-51.262-3.023L709,795.288c13.792,8.459,55.1,3.771,55.713,3.737l89.174-8.425Z" transform="translate(-192.436 -735.703)" fill="#fff"/>
                                <path id="Path_152428" data-name="Path 152428" d="M872.145,813,807.6,821.731c-.1,0-25.988,3.737-24.323,12.977l4.484-.272c-1.291-7.27,19.7-10.531,20.926-10.7L873.164,815Z" transform="translate(-236.92 -751.682)" fill="#fff"/>
                                <path id="Path_152429" data-name="Path 152429" d="M1073.837,817.7,1047,831.7l3.261,1.359,26.871-13.962Z" transform="translate(-530.504 -754.786)" fill="#fff"/>
                                <path id="Path_152430" data-name="Path 152430" d="M908.706,765.456l-17.189.374-.408.034c-.034,0-14.234,1.495-18.141-6.115l-.442-.849-1.868.068c-.068.034-20.417.951-37.062,3.635-16.476,2.65-44.128,8.629-44.2,8.663l1.766,1.9c.068-.034,27.483-5.945,43.687-8.561,13.215-2.106,28.943-3.125,34.175-3.4,5.164,8.017,20.654,6.93,22.625,6.76l16.986-.374Z" transform="translate(-274.569 -715.961)" fill="#fff"/>
                                <path id="Path_152431" data-name="Path 152431" d="M1032.544,1297.033l-23.6,9.555,2.344,1.766,24.533-9.98Z" transform="translate(-678.079 -1027.353)" fill="#fff"/>
                                <path id="Path_152432" data-name="Path 152432" d="M1244.239,1375.391,1155.9,1402.2l-17.5,5.4,40.494,47.424,3.533-1.631-38.455-45.046,14.234-4.416,88.378-26.806Z" transform="translate(-881.341 -1091.6)" fill="#fff"/>
                                <path id="Path_152433" data-name="Path 152433" d="M1834.657,1651.265c.034-.034,13.894-6.353,3.5-14.947l22.047-8.187-2.684-1.631-25.342,9.41,1.121.815c10.361,7.542-1.665,13.045-1.7,13.079Z" transform="translate(-1580.112 -1288.828)" fill="#fff"/>
                                <path id="Path_152434" data-name="Path 152434" d="M1889.359,1559.667l68.587-22.081,14.879,7.813,3.4-1.495-17.427-9.1-72.6,23.372Z" transform="translate(-1714.68 -1228.28)" fill="#fff"/>
                                <path id="Path_152435" data-name="Path 152435" d="M1932.6,1476.97l57.275,11.346,7.643,8.866,4.179-.917-7.983-9.206-1.121-.544L1934.536,1475Z" transform="translate(-1755.917 -1188.794)" fill="#fff"/>
                                <path id="Path_152436" data-name="Path 152436" d="M1924.074,1495.7l-18.174,4.552,1.97,1.869,18.175-4.552Z" transform="translate(-1671.194 -1202.462)" fill="#fff"/>
                                <path id="Path_152437" data-name="Path 152437" d="M2072.093,1532.354l-5.979-12.365-.238-.306-35.7-27.483-3.873,1.155,35.5,27.381,5.911,12.2Z" transform="translate(-1858.143 -1200.151)" fill="#fff"/>
                                <path id="Path_152438" data-name="Path 152438" d="M449.643,994c-48.952,21.368-87.034,38.387-134.356,63.628l3.3,1.359,51.4-27.415L449.3,996.956A5.489,5.489,0,0,0,449.643,994Z" transform="translate(345.484 -871.195)" fill="#fff"/>
                                <path id="Path_152439" data-name="Path 152439" d="M875.977,861.1,788.4,934.919l3.907.951,87.577-73.819Z" transform="translate(-245.407 -783.442)" fill="#fff"/>
                                <path id="Path_152442" data-name="Path 152442" d="M537.671,857.436,482.91,843.1l-2.31,1.868,68.893,18Z" transform="translate(189.547 -771.557)" fill="#fff"/>
                                <path id="Path_152443" data-name="Path 152443" d="M571.417,857.5l-6.217,3.6,3.465,1.291,5.877-3.431Z" transform="translate(135.759 -781.065)" fill="#fff"/>
                                <path id="Path_152444" data-name="Path 152444" d="M713.9,792.538l2.208,20.688,4.484-.238L718.384,792.3Z" transform="translate(-60.806 -738.014)" fill="#fff"/>
                                <path id="Path_152445" data-name="Path 152445" d="M1120.026,920.5l-35.16,26.463a42.887,42.887,0,0,1-13.894,7.066c-5.062,1.325-9.1,2.344-11.346,2.922l-8.051-6.828-3.974,1.121,10.089,8.561,1.97-.51c.034,0,4.96-1.189,13.385-3.4a46.2,46.2,0,0,0,15.661-7.881l35.092-26.429Z" transform="translate(-577.372 -822.663)" fill="#fff"/>
                                <path id="Path_152446" data-name="Path 152446" d="M1254.259,973.5l-31.559,29.045,3.975.917,31.593-29.045Z" transform="translate(-771.326 -857.659)" fill="#fff"/>
                                <path id="Path_152447" data-name="Path 152447" d="M1096.571,1099.6l-27.177-19.125c-14-18.48-27.347-31.729-45.317-49.87l-4.077.985,32.069,32.442,13.147,17.393.238.238,27.313,19.228Z" transform="translate(-540.77 -895.361)" fill="#fff"/>
                                <path id="Path_152449" data-name="Path 152449" d="M1128.9,1181.085l135.137-34.65-2-1.834L1126.9,1179.216Z" transform="translate(-744.556 -970.634)" fill="#fff"/>
                                <path id="Path_152450" data-name="Path 152450" d="M1208.7,934.078l7.1,14.981.136.2,28.332,27.822,36.281,36.927,4.11-.985c-21.334-21.708-42.6-43.109-64.545-64.681l-7.032-14.845Z" transform="translate(-792.962 -831.247)" fill="#fff"/>
                                <path id="Path_152451" data-name="Path 152451" d="M1279.524,1080.8l-31.321,6.285-.272.068-62.031,17.223,2.14,1.8,61.929-17.155,31.151-6.285Z" transform="translate(-781.678 -928.508)" fill="#fff"/>
                                <path id="Path_152453" data-name="Path 152453" d="M1245.359,903.6l-40.9,18.854-.442.272-31.831,28.06-11.89,10.531-40.6,8.561,1.7,1.936,41.343-8.765,1.121-.476,12.264-10.837,31.661-27.924,40.629-18.718Z" transform="translate(-726.485 -811.505)" fill="#fff"/>
                                <path id="Path_152454" data-name="Path 152454" d="M1420,1338.593l.2.17,48.107,29.994,3.329-1.563-47.529-29.586Zm-21.028,63.152-5.843-1.97-1.563-.17-66.855,4.076-.883.136-29.929,8.289,9.512,6.285,28.5-7.372,56.086-4.11,5.367-2.548-62.3,4.586-.781.136-25.376,6.556-4.45-2.956,25.139-6.964,65.462-4.009,4.62,1.6Z" transform="translate(-1004.84 -1083.742)" fill="#fff"/>
                                <path id="Path_152455" data-name="Path 152455" d="M1464.9,1470.057l41.75,29.249,3.329-1.529L1468.7,1468.8Z" transform="translate(-1105.316 -1184.7)" fill="#fff"/>
                                <path id="Path_152457" data-name="Path 152457" d="M1695.679,1503l-5.979,25.172,4.45.136,5.979-25.206Z" transform="translate(-1371.833 -1207.282)" fill="#fff"/>
                                <path id="Path_152458" data-name="Path 152458" d="M1667.5,1371.357l52.422,38.784,3.771-1.223-52.422-38.818Z" transform="translate(-1376.538 -1119.53)" fill="#fff"/>
                                <path id="Path_152460" data-name="Path 152460" d="M1602.183,1340.14l-23.746-16.34-3.737,1.257,23.712,16.374Z" transform="translate(-1234.819 -1088.958)" fill="#fff"/>
                                <path id="Path_152461" data-name="Path 152461" d="M1605.748,1371.378l47.7-16.714L1650.9,1353l-47.7,16.714Z" transform="translate(-1295.762 -1108.239)" fill="#fff"/>
                                <path id="Path_152462" data-name="Path 152462" d="M1679.5,1351.391l16,10.463,3.669-1.325L1683.2,1350.1Z" transform="translate(-1367.408 -1106.324)" fill="#fff"/>
                                <path id="Path_152463" data-name="Path 152463" d="M1703.667,1627.1h-.306l-1.053.2-82.108,25.071,2.344,1.766,67.467-20.62Z" transform="translate(-1351.761 -1289.224)" fill="#fff"/>
                                <path id="Path_152464" data-name="Path 152464" d="M712.424,1067.7l-51.67,27.211-.272.17L641.9,1109.892l3.839,1.019,18.446-14.709,51.534-27.109Z" transform="translate(-31.474 -919.858)" fill="#fff"/>
                                <path id="Path_152466" data-name="Path 152466" d="M1166.3,1412.91l.679,1.7,3.907-1.834-.17-.374Z" transform="translate(-664.785 -1147.46)" fill="#fff"/>
                                <path id="Path_152467" data-name="Path 152467" d="M470.4,1018.255l21.572,16.782,3.873-1.155L474.273,1017.1Z" transform="translate(246.661 -886.447)" fill="#fff"/>
                                <path id="Path_152468" data-name="Path 152468" d="M745.415,895.422c-.034,0-10.667.17-13.521-4.484l-2.31-30.438-4.484.17,2.31,30.54.1.238c3.635,6.353,17.9,6.115,17.937,6.115v-2.14Z" transform="translate(-89.467 -783.046)" fill="#fff"/>
                                <path id="Path_152469" data-name="Path 152469" d="M1162.918,886.413l30.03-11.482-2.718-1.631L1160.2,884.782Z" transform="translate(-684.775 -791.498)" fill="#fff"/>
                            </g>
                            <g id="Group_98307" data-name="Group 98307" transform="translate(174.374 65.021)">
                                <path id="Path_152471" data-name="Path 152471" d="M1025.365,823.9l-6.387,3.227h-.034c-.034,0-4.79,2.344-16.272,4.246-12.4,2.038-73.751,8.561-73.887,8.595l-.34.034c-.068.034-16.272,2.48-38.116-.577-22.828-3.193-66.21-13.113-66.345-13.147l-.2-.034c-.034-.034-11.992-2.31-27.279,3.057-9.478,3.431-33.631,11.516-40.663,14.981-.034.034-9.818,3.771-6.013,9.07l6.047,7.44.238.238s.985.849-5.707,3.057L627.7,888.853l3.193,3.873,123.179-24.833.849-.2c12.06-3.941,10.123-7.61,9.342-8.561l-5.979-7.372c-1.529-2.242,2.378-3.941,2.921-4.178l40.46-14.879c10.633-3.737,17.665-2.582,18.141-2.48,3.091.713,44.944,10.225,67.535,13.385,23.848,3.329,42.294.713,43.245.544,4.586-.476,62.371-6.692,74.634-8.7,13.69-2.242,20.043-5.367,20.043-5.4l.034-.034,6.217-3.159Z" transform="translate(-514.474 -823.9)" fill="#f2d66f"/>
                                <path id="Path_152472" data-name="Path 152472" d="M1837.52,999.419c-4.79-2.14-11.075-3.125-17.359-2.956-6.285.136-12.569,1.393-17.359,3.771-4.79,2.344-7.2,5.367-7.2,8.323s2.378,5.877,7.2,8.017c4.79,2.14,11.074,3.125,17.359,2.956,6.285-.136,12.569-1.393,17.359-3.771,4.79-2.344,7.168-5.367,7.168-8.323S1842.31,1001.559,1837.52,999.419Zm-17.359,1.291a26.059,26.059,0,0,1,10.973,1.868c3.057,1.359,4.552,3.193,4.552,5.062s-1.529,3.771-4.552,5.266a27.134,27.134,0,0,1-10.973,2.378,26.056,26.056,0,0,1-10.973-1.9c-3.023-1.359-4.552-3.193-4.552-5.062s1.529-3.771,4.552-5.266A26.7,26.7,0,0,1,1820.161,1000.71Z" transform="translate(-1724.396 -937.83)" fill="#f2d66f"/>
                                <path id="Path_152473" data-name="Path 152473" d="M1992.235,1038.5c-.1.034-29.895,5.605-60.231,11.414l-16.2,7.61c37.368-7.236,79.323-15.083,79.458-15.117Z" transform="translate(-1915.8 -965.598)" fill="#f2d66f"/>
                                <path id="Path_152474" data-name="Path 152474" d="M1886.453,984.881,1876.092,977l-6.692,3.159,9.376,7.066Z" transform="translate(-1791.233 -924.99)" fill="#f2d66f"/>
                                <path id="Path_152475" data-name="Path 152475" d="M1911.3,997.991l8.085,5.673,7.542-2.48-9-6.285Z" transform="translate(-1845.94 -936.81)" fill="#f2d66f"/>
                            </g>
                        </g>
                        <g id="Group_98316" data-name="Group 98316" transform="translate(261.942 114.902)">
                            <g id="Group_98310" data-name="Group 98310" transform="translate(0 258.366)">
                                <path id="Path_152484" data-name="Path 152484" d="M1836.485,1721.517a7.414,7.414,0,0,0-5.13-.713c-1.563.272-2.616.883-2.956,1.6A39.3,39.3,0,0,0,1836.485,1721.517Z" transform="translate(-1813.948 -1718.876)" fill="#749f48"/>
                                <path id="Path_152485" data-name="Path 152485" d="M1882.881,1716.335c-.51-.747-2.208-1.087-3.8-.815-1.359.238-2.174.917-2.038,1.529,1.461.374,2.989.713,4.518.985C1882.745,1717.694,1883.357,1716.98,1882.881,1716.335Z" transform="translate(-1877.024 -1715.427)" fill="#749f48"/>
                            </g>
                        </g>
                        <path id="Path_152517" data-name="Path 152517" d="M408.232,955l.2-8.561,9.784-.17-.272,11.278-.034,1.223-9.682-3.567Zm-18.65-6.692-9.682-3.567.2-7.066,9.784-.17ZM422.4,959.343l.2-8.561,9.784-.17-.272,11.312-.068,2.038h-.1l-9.614-3.533ZM394.27,942.052l9.784-.17-.272,11.312-.034.374-9.682-3.6Z" transform="translate(344.165 -828.502)" fill="#c0bbb5"/>
                        <path id="Path_152518" data-name="Path 152518" d="M2031.475,1115.715l-12.841-6.76-15.015,6.387,12.841,6.76Zm-16.578-12.433-15.729-.781-1.869,6.59,15.729.781Z" transform="translate(-1804.372 -937.45)" fill="#c0bbb5"/>
                        <path id="Path_152519" data-name="Path 152519" d="M548.255,1125.689l-1.155-.408,10.055-6.081,2.82.985Z" transform="translate(159.776 -948.477)" fill="#c0bbb5"/>
                        <g id="Group_98318" data-name="Group 98318" transform="translate(380.176 287.142)">
                            <path id="Path_152520" data-name="Path 152520" d="M1412.6,1511.4l15.525-5.2,8.221,5.673-15.491,5.2Z" transform="translate(-1390.79 -1491.151)" fill="#c0bbb5"/>
                            <path id="Path_152521" data-name="Path 152521" d="M1444.7,1489.2l15.525-5.2,8.221,5.673-15.525,5.2Z" transform="translate(-1433.795 -1476.492)" fill="#c0bbb5"/>
                        </g>
                        <path id="Path_152526" data-name="Path 152526" d="M789.1,1233.223l-8.8-3.941,19.635-9.682,9.308,4.145Z" transform="translate(-168.713 -1014.77)" fill="#c0bbb5"/>
                    </g>
                    <path id="Path_152528" data-name="Path 152528" d="M317.186,870.752l244.863,115.23a67.536,67.536,0,0,0,21.334,5.809c6.454.645,12.875.136,18.208-2.072l499.1-234.876h0c3.159-1.427,9.138-4.62,11.007-9.1,2-4.756-.272-10.633-14.03-16.646L855.9,615.29a38.287,38.287,0,0,0-30.846.306L318.035,854.174a14.6,14.6,0,0,0-5.367,3.975,8.042,8.042,0,0,0-1.9,4.382,6.4,6.4,0,0,0,1.563,4.756A12.6,12.6,0,0,0,317.186,870.752Zm246.188,112.41L318.443,867.9a9.929,9.929,0,0,1-3.737-2.582,3.368,3.368,0,0,1-.849-2.548,5.173,5.173,0,0,1,1.223-2.684,11.718,11.718,0,0,1,4.213-3.091L826.378,618.381a34.083,34.083,0,0,1,14.132-3.091,33.43,33.43,0,0,1,14.1,2.82l241.806,113.8c11.618,5.1,13.792,9.376,12.433,12.6-1.461,3.5-6.692,6.217-9.444,7.474h-.034l-499,234.842c-4.79,2-10.735,2.446-16.714,1.868A64.1,64.1,0,0,1,563.374,983.162Z" transform="translate(-303.011 -612.198)" fill="#5E987B"/>
                </g>
            </g>
        </g>
    </g>
</svg>