<svg xmlns="http://www.w3.org/2000/svg" xmlns:xlink="http://www.w3.org/1999/xlink" width="550" height="410" viewBox="0 0 550 410">
  <defs>
    <linearGradient id="linear-gradient" x1="0.5" y1="-0.015" x2="0.5" y2="0.994" gradientUnits="objectBoundingBox">
      <stop offset="0" stop-color="#a1c3ff" stop-opacity="0.2"/>
      <stop offset="1" stop-color="#a1c3ff" stop-opacity="0.8"/>
    </linearGradient>
    <linearGradient id="linear-gradient-8" x1="-22.402" y1="4343.28" x2="-22.402" y2="4369.329" xlink:href="#linear-gradient"/>
    <linearGradient id="linear-gradient-9" x1="-20.009" y1="4281.533" x2="-20.009" y2="4307.582" xlink:href="#linear-gradient"/>
    <linearGradient id="linear-gradient-10" x1="-17.617" y1="4219.786" x2="-17.617" y2="4245.834" xlink:href="#linear-gradient"/>
    <linearGradient id="linear-gradient-11" x1="-15.225" y1="4158.038" x2="-15.225" y2="4184.087" xlink:href="#linear-gradient"/>
    <linearGradient id="linear-gradient-12" x1="-12.833" y1="4096.291" x2="-12.833" y2="4122.339" xlink:href="#linear-gradient"/>
    <linearGradient id="linear-gradient-13" x1="-10.441" y1="4034.543" x2="-10.441" y2="4060.592" xlink:href="#linear-gradient"/>
    <linearGradient id="linear-gradient-14" x1="-8.049" y1="3972.796" x2="-8.049" y2="3998.845" xlink:href="#linear-gradient"/>
    <linearGradient id="linear-gradient-15" x1="-5.656" y1="3911.049" x2="-5.656" y2="3937.097" xlink:href="#linear-gradient"/>
    <linearGradient id="linear-gradient-16" x1="-3.264" y1="3849.301" x2="-3.264" y2="3875.35" xlink:href="#linear-gradient"/>
    <linearGradient id="linear-gradient-17" x1="-0.872" y1="3787.554" x2="-0.872" y2="3813.603" xlink:href="#linear-gradient"/>
    <linearGradient id="linear-gradient-18" x1="0.5" y1="1" x2="0.5" gradientUnits="objectBoundingBox">
      <stop offset="0" stop-color="#2d3748" stop-opacity="0"/>
      <stop offset="1" stop-color="#acbfe5"/>
    </linearGradient>
    <radialGradient id="radial-gradient" cx="0.5" cy="0.5" r="0.792" gradientUnits="objectBoundingBox">
      <stop offset="0" stop-color="#acbfe5"/>
      <stop offset="1" stop-color="#acbfe5" stop-opacity="0.502"/>
    </radialGradient>
    <radialGradient id="radial-gradient-2" cx="0.5" cy="0.5" r="1.072" xlink:href="#radial-gradient"/>
    <radialGradient id="radial-gradient-3" cx="0.5" cy="0.5" r="0.5" gradientUnits="objectBoundingBox">
      <stop offset="0" stop-color="#8d4fff"/>
      <stop offset="1" stop-opacity="0"/>
    </radialGradient>
    <radialGradient id="radial-gradient-13" cx="0.5" cy="0.5" r="1.261" gradientUnits="objectBoundingBox">
      <stop offset="0" stop-color="#8d4fff"/>
      <stop offset="0.038" stop-color="#8649f2" stop-opacity="0.937"/>
      <stop offset="0.194" stop-color="#6b36c4" stop-opacity="0.69"/>
      <stop offset="0.348" stop-color="#54259c" stop-opacity="0.482"/>
      <stop offset="0.497" stop-color="#42187c" stop-opacity="0.31"/>
      <stop offset="0.639" stop-color="#330d62" stop-opacity="0.173"/>
      <stop offset="0.774" stop-color="#290650" stop-opacity="0.078"/>
      <stop offset="0.898" stop-color="#230145" stop-opacity="0.02"/>
      <stop offset="1" stop-color="#210042" stop-opacity="0"/>
    </radialGradient>
  </defs>
  <g id="report" transform="translate(-107 -2519)">
    <rect id="NoPath" width="550" height="410" rx="20" transform="translate(107 2519)" fill="#2d3748" style="mix-blend-mode: luminosity;isolation: isolate"/>
    <g id="Group_116570" data-name="Group 116570" transform="translate(112.429 2399.99)">
      <g id="Group_116569" data-name="Group 116569" transform="translate(5.578 161.303)">
        <g id="Group_116559" data-name="Group 116559" transform="translate(52.534 2.11)">
          <g id="Group_116557" data-name="Group 116557" transform="translate(64.627 25.241)" opacity="0.3">
            <rect id="Rectangle_40203" data-name="Rectangle 40203" width="0.569" height="288.814" fill="url(#linear-gradient)"/>
            <rect id="Rectangle_40204" data-name="Rectangle 40204" width="0.569" height="288.814" transform="translate(64.342)" fill="url(#linear-gradient)"/>
            <rect id="Rectangle_40205" data-name="Rectangle 40205" width="0.569" height="288.814" transform="translate(128.684)" fill="url(#linear-gradient)"/>
            <rect id="Rectangle_40206" data-name="Rectangle 40206" width="0.569" height="288.814" transform="translate(193.026)" fill="url(#linear-gradient)"/>
            <rect id="Rectangle_40207" data-name="Rectangle 40207" width="0.569" height="288.814" transform="translate(257.368)" fill="url(#linear-gradient)"/>
            <rect id="Rectangle_40208" data-name="Rectangle 40208" width="0.569" height="288.814" transform="translate(321.71)" fill="url(#linear-gradient)"/>
            <rect id="Rectangle_40209" data-name="Rectangle 40209" width="0.569" height="288.814" transform="translate(386.052)" fill="url(#linear-gradient)"/>
          </g>
          <g id="Group_116558" data-name="Group 116558">
            <rect id="Rectangle_40210" data-name="Rectangle 40210" width="0.569" height="314.054" transform="translate(0)" fill="#a1c3ff"/>
            <rect id="Rectangle_40211" data-name="Rectangle 40211" width="475.452" height="0.497" transform="translate(0 313.557)" fill="#a1c3ff"/>
          </g>
        </g>
        <g id="Group_116568" data-name="Group 116568">
          <rect id="Rectangle_40212" data-name="Rectangle 40212" width="12.831" height="0.497" transform="translate(39.704 12.734)" fill="url(#linear-gradient-8)"/>
          <rect id="Rectangle_40213" data-name="Rectangle 40213" width="12.831" height="0.497" transform="translate(39.704 43.428)" fill="url(#linear-gradient-9)"/>
          <rect id="Rectangle_40214" data-name="Rectangle 40214" width="12.831" height="0.497" transform="translate(39.704 74.122)" fill="url(#linear-gradient-10)"/>
          <rect id="Rectangle_40215" data-name="Rectangle 40215" width="12.831" height="0.497" transform="translate(39.704 104.815)" fill="url(#linear-gradient-11)"/>
          <rect id="Rectangle_40216" data-name="Rectangle 40216" width="12.831" height="0.497" transform="translate(39.704 135.509)" fill="url(#linear-gradient-12)"/>
          <rect id="Rectangle_40217" data-name="Rectangle 40217" width="12.831" height="0.497" transform="translate(39.704 166.203)" fill="url(#linear-gradient-13)"/>
          <rect id="Rectangle_40218" data-name="Rectangle 40218" width="12.831" height="0.497" transform="translate(39.704 196.897)" fill="url(#linear-gradient-14)"/>
          <rect id="Rectangle_40219" data-name="Rectangle 40219" width="12.831" height="0.497" transform="translate(39.704 227.59)" fill="url(#linear-gradient-15)"/>
          <rect id="Rectangle_40220" data-name="Rectangle 40220" width="12.831" height="0.497" transform="translate(39.704 258.284)" fill="url(#linear-gradient-16)"/>
          <rect id="Rectangle_40221" data-name="Rectangle 40221" width="12.831" height="0.497" transform="translate(39.704 288.978)" fill="url(#linear-gradient-17)"/>
          <g id="Group_116560" data-name="Group 116560">
            <text id="_0" data-name="0" transform="translate(21.194 327.242)" fill="#ccc" font-size="8" font-family="Poppins-Regular, Poppins"><tspan x="0" y="0">0</tspan></text>
            <text id="_01" data-name="01" transform="translate(117.158 333.208)" fill="#ccc" font-size="9" font-family="Poppins-Regular, Poppins"><tspan x="0" y="0">01</tspan></text>
            <text id="_02" data-name="02" transform="translate(181.503 333.208)" fill="#ccc" font-size="9" font-family="Poppins-Regular, Poppins"><tspan x="0" y="0">02</tspan></text>
            <text id="_03" data-name="03" transform="translate(245.845 333.208)" fill="#ccc" font-size="9" font-family="Poppins-Regular, Poppins"><tspan x="0" y="0">03</tspan></text>
            <text id="_04" data-name="04" transform="translate(310.19 333.208)" fill="#ccc" font-size="9" font-family="Poppins-Regular, Poppins"><tspan x="0" y="0">04</tspan></text>
            <text id="_05" data-name="05" transform="translate(374.531 333.208)" fill="#ccc" font-size="9" font-family="Poppins-Regular, Poppins"><tspan x="0" y="0">05</tspan></text>
            <text id="_06" data-name="06" transform="translate(438.877 333.208)" fill="#ccc" font-size="9" font-family="Poppins-Regular, Poppins"><tspan x="0" y="0">06</tspan></text>
            <text id="_07" data-name="07" transform="translate(503.218 332.208)" fill="#ccc" font-size="8" font-family="Poppins-Regular, Poppins"><tspan x="0" y="0">07</tspan></text>
            <text id="_5_" data-name="5%" transform="translate(9.606 285.242)" fill="#ccc" font-size="9" font-family="Poppins-Regular, Poppins"><tspan x="0" y="0">5%</tspan></text>
            <text id="_10_" data-name="10%" transform="translate(4.72 254.549)" fill="#ccc" font-size="9" font-family="Poppins-Regular, Poppins"><tspan x="0" y="0">10%</tspan></text>
            <text id="_15_" data-name="15%" transform="translate(4.72 223.855)" fill="#ccc" font-size="9" font-family="Poppins-Regular, Poppins"><tspan x="0" y="0">15%</tspan></text>
            <text id="_20_" data-name="20%" transform="translate(0.826 193.162)" fill="#ccc" font-size="9" font-family="Poppins-Regular, Poppins"><tspan x="0" y="0">20%</tspan></text>
            <text id="_25_" data-name="25%" transform="translate(0.826 162.468)" fill="#ccc" font-size="9" font-family="Poppins-Regular, Poppins"><tspan x="0" y="0">25%</tspan></text>
            <text id="_30_" data-name="30%" transform="translate(0.613 131.774)" fill="#ccc" font-size="9" font-family="Poppins-Regular, Poppins"><tspan x="0" y="0">30%</tspan></text>
            <text id="_35_" data-name="35%" transform="translate(0.613 101.081)" fill="#ccc" font-size="9" font-family="Poppins-Regular, Poppins"><tspan x="0" y="0">35%</tspan></text>
            <text id="_40_" data-name="40%" transform="translate(0 70.387)" fill="#ccc" font-size="9" font-family="Poppins-Regular, Poppins"><tspan x="0" y="0">40%</tspan></text>
            <text id="_45_" data-name="45%" transform="translate(0 39.694)" fill="#ccc" font-size="9" font-family="Poppins-Regular, Poppins"><tspan x="0" y="0">45%</tspan></text>
            <text id="_50_" data-name="50%" transform="translate(0.013 9)" fill="#ccc" font-size="9" font-family="Poppins-Regular, Poppins"><tspan x="0" y="0">50%</tspan></text>
          </g>
          <path id="Path_219629" data-name="Path 219629" d="M17.849,402.557C29.663,272.876,38.655,236.02,45.389,236.106c11.169.138,14.83,101.872,37.091,103.348,20.3,1.346,33.282-82.165,64.34-82.983,27.639-.731,40.955,64.786,64.34,63.639,33.308-1.636,42.145-136.3,64.912-136.444,24.052-.152,40.8,149.9,63.774,149.171,15.319-.485,21.546-67.655,39.432-67.712,13.6-.048,15.449,40.544,24.627,39.471,9.278-1.082,14.133-40.617,27.817-85.294,7.512-24.532,24.7,59.45,36.238,48.368l.009,134.887Z" transform="translate(35.253 -86.89)" fill="url(#linear-gradient-18)"/>
          <path id="Path_219631" data-name="Path 219631" d="M462.279,180.2a.715.715,0,0,0-.3.043c-3.267.3-4.358,5.453-5.647,11.381-1.532,7.01-3.315,15.016-8.863,16.877-4.211,1.428-8.123-1.558-12.679-4.977-4.708-3.592-10.057-7.66-16.942-7.227-8.815.519-13.471,7.963-18.82,16.574-4.951,7.962-10.55,16.964-20.6,21.9a2.841,2.841,0,0,0-2.229-1,2.707,2.707,0,0,0-2.873,2.467,1.079,1.079,0,0,0,.1.39c-8.767,2.726-15.406.736-22.438-1.428-6.34-1.947-12.878-3.938-21.494-2.856-18.279,2.294-30.66,16.358-40.812,32.845a9.707,9.707,0,0,1-.545.952c-4.111,6.751-7.776,13.891-11.394,20.772-9.46,18.219-17.63,33.971-28.726,33.971h-.147c-7.876-.087-14.415-8.179-20.356-19.128-.251-.476-.5-.909-.7-1.385-3.319-6.188-6.439-13.242-9.507-20.166-8.819-19.906-17.137-38.731-29.024-38.731a.49.49,0,0,0-.247.043c-7.729.173-11.147,8.136-15.9,19.127-5.6,13.112-13.225,30.768-32.1,45.092a4.1,4.1,0,0,1-.943.649,24.734,24.734,0,0,1-2.177,1.644C121.765,318.592,108,321.318,95.861,323.741c-4.016.779-7.828,1.558-11.494,2.553l-1.337.389c-8.369,2.423-15.8,6.232-22.239,14.713-5.05,6.621-6.985,12.766-9.213,19.863-2.774,8.828-5.894,18.824-16.046,32.586a132.411,132.411,0,0,1-17.682,19.43v.822h.844a16.63,16.63,0,0,0,1.631-1.515,133.439,133.439,0,0,0,16.245-18.132c10.256-13.891,13.424-23.974,16.2-32.889,2.181-7.01,4.111-13.069,9.014-19.56,6.041-7.962,13.078-11.727,20.9-14.064.446-.173.891-.3,1.337-.433,3.864-1.082,7.924-1.9,12.134-2.726,12.234-2.423,26.151-5.193,41.556-15.882.792-.563,1.584-1.125,2.328-1.688.346-.216.645-.476.939-.692,19.019-14.5,26.648-32.283,32.343-45.481,4.557-10.6,7.828-18.262,14.713-18.435a.588.588,0,0,1,.247-.043c11.044,0,19.564,19.344,27.886,38.038,3.22,7.313,6.487,14.713,10.005,21.161.247.476.493.909.74,1.342,5.993,10.819,12.679,18.781,20.953,18.868h.147c11.887,0,20.209-16.012,29.868-34.62,3.566-6.881,7.279-13.978,11.39-20.729a6.043,6.043,0,0,1,.545-.952c9.953-16.271,22.139-30.076,39.873-32.283,8.317-1,14.709.952,20.85,2.856,7.283,2.207,14.164,4.284,23.329,1.385a2.927,2.927,0,0,0,2.328,1.125,2.713,2.713,0,0,0,2.873-2.51,2.055,2.055,0,0,0-.251-.909c10.2-5.063,15.9-14.108,20.854-22.113,5.3-8.482,9.806-15.8,18.227-16.271a6.479,6.479,0,0,1,.891-.043c6.141,0,11.1,3.765,15.5,7.1,4.557,3.462,8.767,6.708,13.471,5.106,5.946-1.991,7.729-10.169,9.265-17.353,1.186-5.453,2.328-10.6,5.05-10.905h.2c1.636,0,3.618,1.731,5.695,4.933v-1.342C466.39,182.277,464.36,180.2,462.279,180.2ZM376.2,237.669a1.422,1.422,0,1,1,1.631-1.428A1.528,1.528,0,0,1,376.2,237.669Z" transform="translate(35.256 -98.423)" fill="url(#radial-gradient)"/>
          <path id="Path_219632" data-name="Path 219632" d="M445.19,273.8c-8.715-4.154-15.3-4.025-22.239-3.851-5.794.173-11.788.3-19.166-2.25-13.523-4.674-18.279-13.545-23.329-22.936-4.9-9.131-10.005-18.565-23.429-25.056-8.962-4.284-15.3-3.722-22.633-3.073-2.921.26-5.946.519-9.412.519a2.893,2.893,0,0,0-5.5-.389,85.162,85.162,0,0,1-19.963-4.154c-3.514-1.125-6.733-2.294-9.706-3.462a8.468,8.468,0,0,1-1.138-.476c-4.211-1.644-7.928-3.375-11.442-4.933-10.749-4.89-18.526-8.4-26.549-5.5-7.378,2.683-9.512,8.741-13.372,19.647-1.389,3.981-2.973,8.438-5.154,13.675l-.147.389c-1.783,4.241-3.518,8.222-5.2,11.9-.2.476-.394.909-.64,1.385-17.587,38-30.907,46.477-39.328,46.52h-.052c-4.9,0-7.478-2.856-13.571-9.737-3.514-3.981-8.369-9.434-15.5-16.271-5.448-5.28-11.1-10.732-16.743-15.752-.346-.26-.64-.519-.939-.779-13.818-12.2-27.488-21.551-37.744-18.781-7.426,2.034-11.935,13.978-19.266,39.726a12.321,12.321,0,0,0-.346,1.255c-1.19,4.2-2.475,8.742-3.812,13.632-2.281,8.265-3.717,14.151-4.756,18.478-1.982,8.092-2.774,11.424-5.647,16.531C59.9,335.2,43.7,347.32,20.325,356.061c-.792.3-1.631.606-2.475.909v.606h1.636c24.368-8.915,41.206-21.378,50.073-37.043,2.973-5.236,3.765-8.612,5.747-16.79,1.091-4.284,2.475-10.213,4.752-18.435,1.437-5.106,2.726-9.867,3.964-14.324.147-.433.247-.822.346-1.212,6.491-22.849,11.342-36.394,18.327-38.3,9.607-2.6,22.884,6.491,36.4,18.392l.943.822c5.647,5.02,11.342,10.472,16.79,15.752,7.084,6.837,11.887,12.247,15.4,16.228,6.193,6.967,9.018,10.17,14.562,10.17h.052c8.715-.043,22.386-8.525,40.068-46.26.2-.433.4-.866.6-1.342,1.831-3.981,3.713-8.265,5.643-12.9l.2-.433c2.129-5.236,3.717-9.737,5.15-13.675,3.765-10.646,5.846-16.488,12.679-18.954,7.53-2.77,14.661.476,25.51,5.409,3.466,1.6,7.231,3.289,11.442,4.933a8.46,8.46,0,0,0,1.138.476c3.021,1.212,6.292,2.423,9.858,3.549a87.412,87.412,0,0,0,20.3,4.2,2.67,2.67,0,0,0,2.726,2.12,2.812,2.812,0,0,0,2.821-2.164c3.518,0,6.586-.26,9.512-.519,7.478-.692,13.419-1.212,22.139,3.029,13.272,6.361,18.275,15.709,23.13,24.753,5.1,9.477,9.953,18.478,23.723,23.238,7.577,2.6,13.623,2.423,19.465,2.294,6.837-.13,13.324-.3,21.845,3.808,9.905,4.717,17.682,12.982,23.178,24.493v-1.688C462.478,286.3,454.849,278.47,445.19,273.8ZM322.16,218.881a1.436,1.436,0,1,1,0-2.856,1.441,1.441,0,1,1,0,2.856Z" transform="translate(35.256 -41.9)" fill="url(#radial-gradient-2)"/>
          <g id="Group_116563" data-name="Group 116563" transform="translate(39.205 303.521)">
            <ellipse id="Ellipse_2958" data-name="Ellipse 2958" cx="13.901" cy="12.145" rx="13.901" ry="12.145" fill="url(#radial-gradient-3)" style="mix-blend-mode: screen;isolation: isolate"/>
            <ellipse id="Ellipse_2959" data-name="Ellipse 2959" cx="7.624" cy="6.661" rx="7.624" ry="6.661" transform="translate(6.277 5.484)" fill="url(#radial-gradient-3)" style="mix-blend-mode: color-dodge;isolation: isolate"/>
          </g>
          <g id="Group_116564" data-name="Group 116564" transform="translate(397.68 125.695)">
            <ellipse id="Ellipse_2960" data-name="Ellipse 2960" cx="13.901" cy="12.145" rx="13.901" ry="12.145" fill="url(#radial-gradient-3)" style="mix-blend-mode: screen;isolation: isolate"/>
            <ellipse id="Ellipse_2961" data-name="Ellipse 2961" cx="7.624" cy="6.661" rx="7.624" ry="6.661" transform="translate(6.277 5.484)" fill="url(#radial-gradient-3)" style="mix-blend-mode: color-dodge;isolation: isolate"/>
          </g>
          <g id="Group_116565" data-name="Group 116565" transform="translate(497.769 82.054)">
            <ellipse id="Ellipse_2962" data-name="Ellipse 2962" cx="5.462" cy="4.772" rx="5.462" ry="4.772" fill="url(#radial-gradient-3)" style="mix-blend-mode: screen;isolation: isolate"/>
            <ellipse id="Ellipse_2963" data-name="Ellipse 2963" cx="2.995" cy="2.617" rx="2.995" ry="2.617" transform="translate(2.466 2.155)" fill="url(#radial-gradient-3)" style="mix-blend-mode: color-dodge;isolation: isolate"/>
          </g>
          <g id="Group_116566" data-name="Group 116566" transform="translate(496.99 250.851)">
            <ellipse id="Ellipse_2964" data-name="Ellipse 2964" cx="6.24" cy="5.452" rx="6.24" ry="5.452" fill="url(#radial-gradient-3)" style="mix-blend-mode: screen;isolation: isolate"/>
            <ellipse id="Ellipse_2965" data-name="Ellipse 2965" cx="3.423" cy="2.99" rx="3.423" ry="2.99" transform="translate(2.818 2.462)" fill="url(#radial-gradient-3)" style="mix-blend-mode: color-dodge;isolation: isolate"/>
          </g>
          <g id="Group_116567" data-name="Group 116567" transform="translate(343.539 163.408)">
            <ellipse id="Ellipse_2966" data-name="Ellipse 2966" cx="13.901" cy="12.145" rx="13.901" ry="12.145" transform="translate(0)" fill="url(#radial-gradient-3)" style="mix-blend-mode: screen;isolation: isolate"/>
            <ellipse id="Ellipse_2967" data-name="Ellipse 2967" cx="7.624" cy="6.661" rx="7.624" ry="6.661" transform="translate(6.277 5.484)" fill="url(#radial-gradient-3)" style="mix-blend-mode: color-dodge;isolation: isolate"/>
          </g>
          <ellipse id="Ellipse_2968" data-name="Ellipse 2968" cx="18.203" cy="7.216" rx="18.203" ry="7.216" transform="translate(205.95 136.462)" fill="url(#radial-gradient-13)" style="mix-blend-mode: screen;isolation: isolate"/>
          <ellipse id="Ellipse_2969" data-name="Ellipse 2969" cx="18.203" cy="7.216" rx="18.203" ry="7.216" transform="translate(203.424 243.207)" fill="url(#radial-gradient-13)" style="mix-blend-mode: screen;isolation: isolate"/>
        </g>
      </g>
    </g>
  </g>
</svg>
